<svg width="389" height="300" viewBox="0 0 389 256" fill="none" xmlns="http://www.w3.org/2000/svg">
<g clip-path="url(#clip0_144_67)">
<rect width="389" height="300" rx="30" fill="#F1C40F"/>
<g opacity="0.2">
<mask id="mask0_144_67" style="mask-type:alpha" maskUnits="userSpaceOnUse" x="-1" y="0" width="391" height="246">
<rect x="-0.5" width="400" height="300" rx="30" fill="#282F30"/>
</mask>
<g mask="url(#mask0_144_67)">
<circle cx="199.5" cy="209" r="30" stroke="#282F30" stroke-opacity="0.57"/>
<circle cx="199.5" cy="209" r="50" stroke="#282F30" stroke-opacity="0.57"/>
<circle cx="199.5" cy="209" r="80" stroke="#282F30" stroke-opacity="0.57"/>
<circle cx="199.5" cy="209" r="110" stroke="#282F30" stroke-opacity="0.57"/>
<circle cx="199.5" cy="209" r="140" stroke="#282F30" stroke-opacity="0.57"/>
<circle cx="199.5" cy="209" r="180" stroke="#282F30" stroke-opacity="0.57"/>
<circle cx="199.5" cy="209" r="210" stroke="#282F30" stroke-opacity="0.57"/>
<circle cx="199.5" cy="209" r="240" stroke="#282F30" stroke-opacity="0.57"/>
</g>
</g>
<g filter="url(#filter0_d_144_67)">
<rect x="17" y="25" width="355" height="62" rx="20" fill="white"/>
<path opacity="0.3" d="M45.024 55.488V60H43.16V55.488L38.952 48.48H40.592C40.7573 48.48 40.888 48.52 40.984 48.6C41.08 48.68 41.16 48.7813 41.224 48.904L43.584 53.032C43.6907 53.24 43.7867 53.4373 43.872 53.624C43.9627 53.8107 44.0427 53.9947 44.112 54.176C44.1707 53.9893 44.2427 53.8053 44.328 53.624C44.4133 53.4373 44.5093 53.24 44.616 53.032L46.96 48.904C47.0133 48.7973 47.0907 48.7013 47.192 48.616C47.2933 48.5253 47.424 48.48 47.584 48.48H49.232L45.024 55.488ZM51.9823 51.712C52.5849 51.712 53.1289 51.8107 53.6143 52.008C54.1049 52.2053 54.5209 52.4853 54.8623 52.848C55.2089 53.2107 55.4756 53.6507 55.6623 54.168C55.8489 54.6853 55.9423 55.2667 55.9423 55.912C55.9423 56.5573 55.8489 57.1387 55.6623 57.656C55.4756 58.1733 55.2089 58.616 54.8623 58.984C54.5209 59.3467 54.1049 59.6267 53.6143 59.824C53.1289 60.0213 52.5849 60.12 51.9823 60.12C51.3743 60.12 50.8249 60.0213 50.3343 59.824C49.8489 59.6267 49.4329 59.3467 49.0863 58.984C48.7396 58.616 48.4729 58.1733 48.2863 57.656C48.0996 57.1387 48.0063 56.5573 48.0063 55.912C48.0063 55.2667 48.0996 54.6853 48.2863 54.168C48.4729 53.6507 48.7396 53.2107 49.0863 52.848C49.4329 52.4853 49.8489 52.2053 50.3343 52.008C50.8249 51.8107 51.3743 51.712 51.9823 51.712ZM51.9823 58.776C52.7183 58.776 53.2649 58.5307 53.6223 58.04C53.9849 57.544 54.1663 56.8373 54.1663 55.92C54.1663 55.0027 53.9849 54.296 53.6223 53.8C53.2649 53.2987 52.7183 53.048 51.9823 53.048C51.2356 53.048 50.6809 53.2987 50.3183 53.8C49.9556 54.296 49.7743 55.0027 49.7743 55.92C49.7743 56.8373 49.9556 57.544 50.3183 58.04C50.6809 58.5307 51.2356 58.776 51.9823 58.776ZM64.4749 51.84V60H63.4349C63.2055 60 63.0589 59.8907 62.9949 59.672L62.8669 58.912C62.6962 59.0933 62.5149 59.2587 62.3229 59.408C62.1362 59.5573 61.9362 59.6853 61.7229 59.792C61.5095 59.8987 61.2802 59.9813 61.0349 60.04C60.7949 60.0987 60.5362 60.128 60.2589 60.128C59.8109 60.128 59.4162 60.0533 59.0749 59.904C58.7335 59.7547 58.4455 59.544 58.2109 59.272C57.9815 59 57.8082 58.6747 57.6909 58.296C57.5735 57.912 57.5149 57.4907 57.5149 57.032V51.84H59.2349V57.032C59.2349 57.5813 59.3602 58.008 59.6109 58.312C59.8669 58.616 60.2535 58.768 60.7709 58.768C61.1495 58.768 61.5015 58.6827 61.8269 58.512C62.1575 58.336 62.4669 58.096 62.7549 57.792V51.84H64.4749ZM68.1876 53.352C68.4436 52.8347 68.753 52.4293 69.1156 52.136C69.4783 51.8373 69.913 51.688 70.4196 51.688C70.5956 51.688 70.761 51.7093 70.9156 51.752C71.0703 51.7893 71.209 51.848 71.3316 51.928L71.2116 53.224C71.1903 53.3147 71.1556 53.3787 71.1076 53.416C71.065 53.448 71.0063 53.464 70.9316 53.464C70.8516 53.464 70.737 53.4507 70.5876 53.424C70.4383 53.392 70.281 53.376 70.1156 53.376C69.8756 53.376 69.6623 53.4107 69.4756 53.48C69.2943 53.5493 69.129 53.6507 68.9796 53.784C68.8356 53.9173 68.7076 54.08 68.5956 54.272C68.4836 54.464 68.3796 54.6827 68.2836 54.928V60H66.5636V51.84H67.5636C67.745 51.84 67.8703 51.8747 67.9396 51.944C68.009 52.008 68.057 52.1227 68.0836 52.288L68.1876 53.352ZM77.8305 57.952C78.0705 58.2613 78.3318 58.48 78.6145 58.608C78.9025 58.7307 79.2198 58.792 79.5665 58.792C80.2385 58.792 80.7612 58.5467 81.1345 58.056C81.5132 57.5653 81.7025 56.8347 81.7025 55.864C81.7025 55.3627 81.6598 54.936 81.5745 54.584C81.4892 54.2267 81.3665 53.936 81.2065 53.712C81.0465 53.488 80.8518 53.3253 80.6225 53.224C80.3932 53.1227 80.1345 53.072 79.8465 53.072C79.4092 53.072 79.0305 53.168 78.7105 53.36C78.3958 53.5467 78.1025 53.816 77.8305 54.168V57.952ZM77.7425 53.024C78.0838 52.624 78.4705 52.3013 78.9025 52.056C79.3398 51.8107 79.8465 51.688 80.4225 51.688C80.8812 51.688 81.2972 51.7813 81.6705 51.968C82.0438 52.1493 82.3638 52.416 82.6305 52.768C82.8972 53.12 83.1025 53.5573 83.2465 54.08C83.3958 54.5973 83.4705 55.192 83.4705 55.864C83.4705 56.4667 83.3878 57.0293 83.2225 57.552C83.0625 58.0693 82.8305 58.52 82.5265 58.904C82.2225 59.2827 81.8545 59.5813 81.4225 59.8C80.9905 60.0133 80.5025 60.12 79.9585 60.12C79.4785 60.12 79.0705 60.0427 78.7345 59.888C78.4038 59.7333 78.1025 59.52 77.8305 59.248V62.712H76.1105V51.84H77.1505C77.3852 51.84 77.5345 51.9493 77.5985 52.168L77.7425 53.024ZM88.6698 51.712C89.2724 51.712 89.8164 51.8107 90.3018 52.008C90.7924 52.2053 91.2084 52.4853 91.5498 52.848C91.8964 53.2107 92.1631 53.6507 92.3498 54.168C92.5364 54.6853 92.6298 55.2667 92.6298 55.912C92.6298 56.5573 92.5364 57.1387 92.3498 57.656C92.1631 58.1733 91.8964 58.616 91.5498 58.984C91.2084 59.3467 90.7924 59.6267 90.3018 59.824C89.8164 60.0213 89.2724 60.12 88.6698 60.12C88.0618 60.12 87.5124 60.0213 87.0218 59.824C86.5364 59.6267 86.1204 59.3467 85.7738 58.984C85.4271 58.616 85.1604 58.1733 84.9738 57.656C84.7871 57.1387 84.6938 56.5573 84.6938 55.912C84.6938 55.2667 84.7871 54.6853 84.9738 54.168C85.1604 53.6507 85.4271 53.2107 85.7738 52.848C86.1204 52.4853 86.5364 52.2053 87.0218 52.008C87.5124 51.8107 88.0618 51.712 88.6698 51.712ZM88.6698 58.776C89.4058 58.776 89.9524 58.5307 90.3098 58.04C90.6724 57.544 90.8538 56.8373 90.8538 55.92C90.8538 55.0027 90.6724 54.296 90.3098 53.8C89.9524 53.2987 89.4058 53.048 88.6698 53.048C87.9231 53.048 87.3684 53.2987 87.0058 53.8C86.6431 54.296 86.4618 55.0027 86.4618 55.92C86.4618 56.8373 86.6431 57.544 87.0058 58.04C87.3684 58.5307 87.9231 58.776 88.6698 58.776ZM95.9064 53.352C96.1624 52.8347 96.4717 52.4293 96.8344 52.136C97.197 51.8373 97.6317 51.688 98.1384 51.688C98.3144 51.688 98.4797 51.7093 98.6344 51.752C98.789 51.7893 98.9277 51.848 99.0504 51.928L98.9304 53.224C98.909 53.3147 98.8744 53.3787 98.8264 53.416C98.7837 53.448 98.725 53.464 98.6504 53.464C98.5704 53.464 98.4557 53.4507 98.3064 53.424C98.157 53.392 97.9997 53.376 97.8344 53.376C97.5944 53.376 97.381 53.4107 97.1944 53.48C97.013 53.5493 96.8477 53.6507 96.6984 53.784C96.5544 53.9173 96.4264 54.08 96.3144 54.272C96.2024 54.464 96.0984 54.6827 96.0024 54.928V60H94.2824V51.84H95.2824C95.4637 51.84 95.589 51.8747 95.6584 51.944C95.7277 52.008 95.7757 52.1227 95.8024 52.288L95.9064 53.352ZM106.189 60V53.192H102.413V57.824C102.413 58.1173 102.485 58.3413 102.629 58.496C102.773 58.6507 102.965 58.728 103.205 58.728C103.338 58.728 103.453 58.712 103.549 58.68C103.645 58.6427 103.727 58.6053 103.797 58.568C103.866 58.5253 103.925 58.488 103.973 58.456C104.026 58.4187 104.077 58.4 104.125 58.4C104.221 58.4 104.298 58.4533 104.357 58.56L104.869 59.4C104.602 59.6347 104.287 59.816 103.925 59.944C103.562 60.0667 103.189 60.128 102.805 60.128C102.127 60.128 101.605 59.9387 101.237 59.56C100.874 59.176 100.693 58.6373 100.693 57.944V53.192H99.7966C99.7006 53.192 99.618 53.1627 99.5486 53.104C99.4793 53.04 99.4446 52.9467 99.4446 52.824V52.128L100.765 51.936L101.141 49.576C101.167 49.4853 101.213 49.4133 101.277 49.36C101.341 49.3013 101.426 49.272 101.533 49.272H102.413V51.952H106.189V51.264C106.189 50.8 106.255 50.384 106.389 50.016C106.527 49.648 106.722 49.336 106.973 49.08C107.229 48.824 107.538 48.6293 107.901 48.496C108.263 48.3573 108.669 48.288 109.117 48.288C109.474 48.288 109.818 48.3413 110.149 48.448L110.109 49.312C110.098 49.456 110.026 49.5413 109.893 49.568C109.765 49.5947 109.602 49.608 109.405 49.608C109.165 49.608 108.949 49.6373 108.757 49.696C108.565 49.7493 108.399 49.8427 108.261 49.976C108.127 50.1093 108.023 50.2853 107.949 50.504C107.879 50.7227 107.845 50.9947 107.845 51.32V51.952H110.077V53.192H107.901V60H106.189ZM114.607 51.712C115.21 51.712 115.754 51.8107 116.239 52.008C116.73 52.2053 117.146 52.4853 117.487 52.848C117.834 53.2107 118.101 53.6507 118.287 54.168C118.474 54.6853 118.567 55.2667 118.567 55.912C118.567 56.5573 118.474 57.1387 118.287 57.656C118.101 58.1733 117.834 58.616 117.487 58.984C117.146 59.3467 116.73 59.6267 116.239 59.824C115.754 60.0213 115.21 60.12 114.607 60.12C113.999 60.12 113.45 60.0213 112.959 59.824C112.474 59.6267 112.058 59.3467 111.711 58.984C111.365 58.616 111.098 58.1733 110.911 57.656C110.725 57.1387 110.631 56.5573 110.631 55.912C110.631 55.2667 110.725 54.6853 110.911 54.168C111.098 53.6507 111.365 53.2107 111.711 52.848C112.058 52.4853 112.474 52.2053 112.959 52.008C113.45 51.8107 113.999 51.712 114.607 51.712ZM114.607 58.776C115.343 58.776 115.89 58.5307 116.247 58.04C116.61 57.544 116.791 56.8373 116.791 55.92C116.791 55.0027 116.61 54.296 116.247 53.8C115.89 53.2987 115.343 53.048 114.607 53.048C113.861 53.048 113.306 53.2987 112.943 53.8C112.581 54.296 112.399 55.0027 112.399 55.92C112.399 56.8373 112.581 57.544 112.943 58.04C113.306 58.5307 113.861 58.776 114.607 58.776ZM121.972 48.16V60H120.252V48.16H121.972ZM125.887 51.84V60H124.167V51.84H125.887ZM126.175 49.376C126.175 49.5307 126.143 49.6773 126.079 49.816C126.02 49.9547 125.938 50.0773 125.831 50.184C125.724 50.2853 125.599 50.368 125.455 50.432C125.316 50.4907 125.167 50.52 125.007 50.52C124.852 50.52 124.706 50.4907 124.567 50.432C124.434 50.368 124.316 50.2853 124.215 50.184C124.114 50.0773 124.031 49.9547 123.967 49.816C123.908 49.6773 123.879 49.5307 123.879 49.376C123.879 49.216 123.908 49.0667 123.967 48.928C124.031 48.7893 124.114 48.6693 124.215 48.568C124.316 48.4613 124.434 48.3787 124.567 48.32C124.706 48.256 124.852 48.224 125.007 48.224C125.167 48.224 125.316 48.256 125.455 48.32C125.599 48.3787 125.724 48.4613 125.831 48.568C125.938 48.6693 126.02 48.7893 126.079 48.928C126.143 49.0667 126.175 49.216 126.175 49.376ZM131.576 51.712C132.179 51.712 132.723 51.8107 133.208 52.008C133.699 52.2053 134.115 52.4853 134.456 52.848C134.803 53.2107 135.069 53.6507 135.256 54.168C135.443 54.6853 135.536 55.2667 135.536 55.912C135.536 56.5573 135.443 57.1387 135.256 57.656C135.069 58.1733 134.803 58.616 134.456 58.984C134.115 59.3467 133.699 59.6267 133.208 59.824C132.723 60.0213 132.179 60.12 131.576 60.12C130.968 60.12 130.419 60.0213 129.928 59.824C129.443 59.6267 129.027 59.3467 128.68 58.984C128.333 58.616 128.067 58.1733 127.88 57.656C127.693 57.1387 127.6 56.5573 127.6 55.912C127.6 55.2667 127.693 54.6853 127.88 54.168C128.067 53.6507 128.333 53.2107 128.68 52.848C129.027 52.4853 129.443 52.2053 129.928 52.008C130.419 51.8107 130.968 51.712 131.576 51.712ZM131.576 58.776C132.312 58.776 132.859 58.5307 133.216 58.04C133.579 57.544 133.76 56.8373 133.76 55.92C133.76 55.0027 133.579 54.296 133.216 53.8C132.859 53.2987 132.312 53.048 131.576 53.048C130.829 53.048 130.275 53.2987 129.912 53.8C129.549 54.296 129.368 55.0027 129.368 55.92C129.368 56.8373 129.549 57.544 129.912 58.04C130.275 58.5307 130.829 58.776 131.576 58.776ZM142.781 52.92C142.957 52.7387 143.138 52.576 143.325 52.432C143.517 52.2827 143.72 52.1547 143.933 52.048C144.146 51.9413 144.373 51.8587 144.613 51.8C144.853 51.7413 145.114 51.712 145.397 51.712C145.845 51.712 146.237 51.7867 146.573 51.936C146.914 52.0853 147.2 52.296 147.429 52.568C147.664 52.84 147.84 53.168 147.957 53.552C148.074 53.9307 148.133 54.3493 148.133 54.808V60H146.421V54.808C146.421 54.2587 146.293 53.832 146.037 53.528C145.786 53.224 145.402 53.072 144.885 53.072C144.501 53.072 144.144 53.16 143.813 53.336C143.488 53.512 143.181 53.752 142.893 54.056V60H141.173V51.84H142.213C142.448 51.84 142.597 51.9493 142.661 52.168L142.781 52.92ZM155.494 55C155.494 54.712 155.451 54.4453 155.366 54.2C155.286 53.9493 155.166 53.7333 155.006 53.552C154.846 53.3653 154.646 53.2213 154.406 53.12C154.171 53.0133 153.899 52.96 153.59 52.96C152.966 52.96 152.475 53.1387 152.118 53.496C151.76 53.8533 151.534 54.3547 151.438 55H155.494ZM151.39 56.056C151.411 56.52 151.483 56.9227 151.606 57.264C151.728 57.6 151.891 57.88 152.094 58.104C152.302 58.328 152.547 58.496 152.83 58.608C153.118 58.7147 153.438 58.768 153.79 58.768C154.126 58.768 154.416 58.7307 154.662 58.656C154.907 58.576 155.12 58.4907 155.302 58.4C155.483 58.304 155.638 58.2187 155.766 58.144C155.894 58.064 156.011 58.024 156.118 58.024C156.256 58.024 156.363 58.0773 156.438 58.184L156.926 58.816C156.723 59.056 156.494 59.2587 156.238 59.424C155.982 59.5893 155.71 59.7253 155.422 59.832C155.134 59.9333 154.838 60.0053 154.534 60.048C154.23 60.096 153.934 60.12 153.646 60.12C153.08 60.12 152.555 60.0267 152.07 59.84C151.59 59.648 151.171 59.368 150.814 59C150.462 58.632 150.184 58.176 149.982 57.632C149.784 57.088 149.686 56.4613 149.686 55.752C149.686 55.1867 149.774 54.6587 149.95 54.168C150.131 53.6773 150.387 53.2507 150.718 52.888C151.054 52.5253 151.459 52.24 151.934 52.032C152.414 51.8187 152.955 51.712 153.558 51.712C154.059 51.712 154.523 51.7947 154.95 51.96C155.376 52.12 155.744 52.3573 156.054 52.672C156.363 52.9867 156.603 53.3733 156.774 53.832C156.95 54.2853 157.038 54.8027 157.038 55.384C157.038 55.6507 157.008 55.8293 156.95 55.92C156.891 56.0107 156.784 56.056 156.63 56.056H151.39ZM163.994 55C163.994 54.712 163.951 54.4453 163.866 54.2C163.786 53.9493 163.666 53.7333 163.506 53.552C163.346 53.3653 163.146 53.2213 162.906 53.12C162.671 53.0133 162.399 52.96 162.09 52.96C161.466 52.96 160.975 53.1387 160.618 53.496C160.26 53.8533 160.034 54.3547 159.938 55H163.994ZM159.89 56.056C159.911 56.52 159.983 56.9227 160.106 57.264C160.228 57.6 160.391 57.88 160.594 58.104C160.802 58.328 161.047 58.496 161.33 58.608C161.618 58.7147 161.938 58.768 162.29 58.768C162.626 58.768 162.916 58.7307 163.162 58.656C163.407 58.576 163.62 58.4907 163.802 58.4C163.983 58.304 164.138 58.2187 164.266 58.144C164.394 58.064 164.511 58.024 164.618 58.024C164.756 58.024 164.863 58.0773 164.938 58.184L165.426 58.816C165.223 59.056 164.994 59.2587 164.738 59.424C164.482 59.5893 164.21 59.7253 163.922 59.832C163.634 59.9333 163.338 60.0053 163.034 60.048C162.73 60.096 162.434 60.12 162.146 60.12C161.58 60.12 161.055 60.0267 160.57 59.84C160.09 59.648 159.671 59.368 159.314 59C158.962 58.632 158.684 58.176 158.482 57.632C158.284 57.088 158.186 56.4613 158.186 55.752C158.186 55.1867 158.274 54.6587 158.45 54.168C158.631 53.6773 158.887 53.2507 159.218 52.888C159.554 52.5253 159.959 52.24 160.434 52.032C160.914 51.8187 161.455 51.712 162.058 51.712C162.559 51.712 163.023 51.7947 163.45 51.96C163.876 52.12 164.244 52.3573 164.554 52.672C164.863 52.9867 165.103 53.3733 165.274 53.832C165.45 54.2853 165.538 54.8027 165.538 55.384C165.538 55.6507 165.508 55.8293 165.45 55.92C165.391 56.0107 165.284 56.056 165.13 56.056H159.89ZM172.35 53.848C172.11 53.5387 171.846 53.3227 171.558 53.2C171.27 53.0773 170.958 53.016 170.622 53.016C169.95 53.016 169.424 53.264 169.046 53.76C168.667 54.2507 168.478 54.9787 168.478 55.944C168.478 56.4453 168.52 56.8747 168.606 57.232C168.691 57.584 168.814 57.872 168.974 58.096C169.134 58.32 169.328 58.4827 169.558 58.584C169.787 58.6853 170.046 58.736 170.334 58.736C170.771 58.736 171.147 58.6427 171.462 58.456C171.782 58.264 172.078 57.9947 172.35 57.648V53.848ZM174.07 48.16V60H173.03C172.8 60 172.654 59.8907 172.59 59.672L172.438 58.784C172.096 59.184 171.707 59.5067 171.27 59.752C170.838 59.9973 170.334 60.12 169.758 60.12C169.299 60.12 168.883 60.0293 168.51 59.848C168.136 59.6613 167.816 59.392 167.55 59.04C167.283 58.688 167.075 58.2533 166.926 57.736C166.782 57.2133 166.71 56.616 166.71 55.944C166.71 55.336 166.79 54.7733 166.95 54.256C167.115 53.7387 167.35 53.2907 167.654 52.912C167.958 52.528 168.326 52.2293 168.758 52.016C169.195 51.7973 169.683 51.688 170.222 51.688C170.702 51.688 171.11 51.7653 171.446 51.92C171.782 52.0693 172.083 52.28 172.35 52.552V48.16H174.07ZM181.045 53.32C181.002 53.3947 180.954 53.448 180.901 53.48C180.848 53.512 180.781 53.528 180.701 53.528C180.61 53.528 180.512 53.5013 180.405 53.448C180.298 53.3893 180.173 53.3253 180.029 53.256C179.885 53.1867 179.714 53.1253 179.517 53.072C179.325 53.0133 179.098 52.984 178.837 52.984C178.624 52.984 178.429 53.0107 178.253 53.064C178.082 53.112 177.936 53.184 177.813 53.28C177.696 53.3707 177.605 53.48 177.541 53.608C177.477 53.7307 177.445 53.864 177.445 54.008C177.445 54.2 177.504 54.36 177.621 54.488C177.738 54.616 177.893 54.728 178.085 54.824C178.277 54.9147 178.496 54.9973 178.741 55.072C178.986 55.1467 179.237 55.2267 179.493 55.312C179.749 55.3973 180 55.496 180.245 55.608C180.49 55.72 180.709 55.8587 180.901 56.024C181.093 56.184 181.248 56.3813 181.365 56.616C181.482 56.8453 181.541 57.1253 181.541 57.456C181.541 57.84 181.472 58.1947 181.333 58.52C181.194 58.8453 180.992 59.128 180.725 59.368C180.458 59.608 180.125 59.7947 179.725 59.928C179.33 60.0613 178.877 60.128 178.365 60.128C178.082 60.128 177.808 60.1013 177.541 60.048C177.28 60 177.029 59.9333 176.789 59.848C176.554 59.7573 176.333 59.6507 176.125 59.528C175.922 59.4053 175.741 59.272 175.581 59.128L175.981 58.472C176.029 58.392 176.088 58.3307 176.157 58.288C176.232 58.24 176.322 58.216 176.429 58.216C176.541 58.216 176.65 58.2533 176.757 58.328C176.869 58.3973 176.997 58.4747 177.141 58.56C177.29 58.6453 177.469 58.7253 177.677 58.8C177.885 58.8693 178.144 58.904 178.453 58.904C178.709 58.904 178.93 58.8747 179.117 58.816C179.304 58.752 179.458 58.6667 179.581 58.56C179.704 58.4533 179.794 58.3333 179.853 58.2C179.912 58.0613 179.941 57.9147 179.941 57.76C179.941 57.552 179.882 57.3813 179.765 57.248C179.648 57.1147 179.49 57 179.293 56.904C179.101 56.808 178.88 56.7227 178.629 56.648C178.384 56.5733 178.133 56.4933 177.877 56.408C177.621 56.3227 177.368 56.224 177.117 56.112C176.872 56 176.65 55.8587 176.453 55.688C176.261 55.512 176.106 55.3013 175.989 55.056C175.872 54.8053 175.813 54.5013 175.813 54.144C175.813 53.8187 175.877 53.5093 176.005 53.216C176.138 52.9227 176.33 52.664 176.581 52.44C176.837 52.216 177.149 52.04 177.517 51.912C177.89 51.7787 178.32 51.712 178.805 51.712C179.354 51.712 179.853 51.8 180.301 51.976C180.749 52.152 181.125 52.392 181.429 52.696L181.045 53.32ZM188.75 52.92C188.926 52.7387 189.107 52.576 189.294 52.432C189.486 52.2827 189.688 52.1547 189.902 52.048C190.115 51.9413 190.342 51.8587 190.582 51.8C190.822 51.7413 191.083 51.712 191.366 51.712C191.814 51.712 192.206 51.7867 192.542 51.936C192.883 52.0853 193.168 52.296 193.398 52.568C193.632 52.84 193.808 53.168 193.926 53.552C194.043 53.9307 194.102 54.3493 194.102 54.808V60H192.39V54.808C192.39 54.2587 192.262 53.832 192.006 53.528C191.755 53.224 191.371 53.072 190.854 53.072C190.47 53.072 190.112 53.16 189.782 53.336C189.456 53.512 189.15 53.752 188.862 54.056V60H187.142V51.84H188.182C188.416 51.84 188.566 51.9493 188.63 52.168L188.75 52.92ZM200.471 56.432C199.857 56.4533 199.34 56.504 198.919 56.584C198.497 56.6587 198.156 56.7573 197.895 56.88C197.633 56.9973 197.444 57.1387 197.327 57.304C197.215 57.4693 197.159 57.6507 197.159 57.848C197.159 58.04 197.188 58.2053 197.247 58.344C197.311 58.4773 197.396 58.5893 197.503 58.68C197.615 58.7653 197.743 58.8293 197.887 58.872C198.036 58.9093 198.199 58.928 198.375 58.928C198.823 58.928 199.207 58.8453 199.527 58.68C199.852 58.5093 200.167 58.264 200.471 57.944V56.432ZM195.911 52.976C196.833 52.1173 197.932 51.688 199.207 51.688C199.676 51.688 200.092 51.7653 200.455 51.92C200.823 52.0693 201.129 52.2827 201.375 52.56C201.625 52.8373 201.815 53.168 201.943 53.552C202.076 53.9307 202.143 54.352 202.143 54.816V60H201.375C201.209 60 201.084 59.976 200.999 59.928C200.913 59.8747 200.841 59.7707 200.783 59.616L200.615 58.952C200.407 59.1387 200.201 59.3067 199.999 59.456C199.796 59.6 199.585 59.7227 199.367 59.824C199.153 59.9253 198.921 60 198.671 60.048C198.425 60.1013 198.153 60.128 197.855 60.128C197.524 60.128 197.215 60.0827 196.927 59.992C196.644 59.9013 196.399 59.7653 196.191 59.584C195.983 59.3973 195.817 59.168 195.695 58.896C195.577 58.624 195.519 58.304 195.519 57.936C195.519 57.6213 195.601 57.3147 195.767 57.016C195.937 56.7173 196.215 56.4507 196.599 56.216C196.988 55.976 197.497 55.7787 198.127 55.624C198.761 55.4693 199.543 55.3813 200.471 55.36V54.816C200.471 54.2293 200.345 53.792 200.095 53.504C199.844 53.216 199.476 53.072 198.991 53.072C198.66 53.072 198.383 53.1147 198.159 53.2C197.935 53.28 197.74 53.368 197.575 53.464C197.409 53.56 197.263 53.6507 197.135 53.736C197.007 53.816 196.871 53.856 196.727 53.856C196.609 53.856 196.508 53.8267 196.423 53.768C196.343 53.704 196.276 53.6267 196.223 53.536L195.911 52.976ZM204.157 60V51.84H205.197C205.432 51.84 205.581 51.9493 205.645 52.168L205.757 52.88C205.907 52.7093 206.061 52.5547 206.221 52.416C206.381 52.272 206.552 52.1493 206.733 52.048C206.92 51.9413 207.117 51.8587 207.325 51.8C207.539 51.7413 207.768 51.712 208.013 51.712C208.275 51.712 208.515 51.7493 208.733 51.824C208.952 51.8987 209.144 52.0053 209.309 52.144C209.48 52.2827 209.627 52.4507 209.749 52.648C209.872 52.8453 209.973 53.0667 210.053 53.312C210.176 53.0293 210.331 52.7867 210.517 52.584C210.704 52.3813 210.912 52.216 211.141 52.088C211.371 51.96 211.613 51.8667 211.869 51.808C212.131 51.744 212.395 51.712 212.661 51.712C213.099 51.712 213.488 51.7813 213.829 51.92C214.176 52.0587 214.467 52.2613 214.701 52.528C214.941 52.7893 215.123 53.112 215.245 53.496C215.368 53.88 215.429 54.3173 215.429 54.808V60H213.709V54.808C213.709 54.232 213.584 53.8 213.333 53.512C213.088 53.2187 212.723 53.072 212.237 53.072C212.019 53.072 211.813 53.1093 211.621 53.184C211.429 53.2587 211.261 53.368 211.117 53.512C210.973 53.656 210.859 53.8373 210.773 54.056C210.693 54.2693 210.653 54.52 210.653 54.808V60H208.933V54.808C208.933 54.2107 208.813 53.7733 208.573 53.496C208.333 53.2133 207.981 53.072 207.517 53.072C207.197 53.072 206.901 53.1547 206.629 53.32C206.357 53.48 206.107 53.7013 205.877 53.984V60H204.157ZM222.791 55C222.791 54.712 222.748 54.4453 222.663 54.2C222.583 53.9493 222.463 53.7333 222.303 53.552C222.143 53.3653 221.943 53.2213 221.703 53.12C221.468 53.0133 221.196 52.96 220.887 52.96C220.263 52.96 219.772 53.1387 219.415 53.496C219.057 53.8533 218.831 54.3547 218.735 55H222.791ZM218.687 56.056C218.708 56.52 218.78 56.9227 218.903 57.264C219.025 57.6 219.188 57.88 219.391 58.104C219.599 58.328 219.844 58.496 220.127 58.608C220.415 58.7147 220.735 58.768 221.087 58.768C221.423 58.768 221.713 58.7307 221.959 58.656C222.204 58.576 222.417 58.4907 222.599 58.4C222.78 58.304 222.935 58.2187 223.063 58.144C223.191 58.064 223.308 58.024 223.415 58.024C223.553 58.024 223.66 58.0773 223.735 58.184L224.223 58.816C224.02 59.056 223.791 59.2587 223.535 59.424C223.279 59.5893 223.007 59.7253 222.719 59.832C222.431 59.9333 222.135 60.0053 221.831 60.048C221.527 60.096 221.231 60.12 220.943 60.12C220.377 60.12 219.852 60.0267 219.367 59.84C218.887 59.648 218.468 59.368 218.111 59C217.759 58.632 217.481 58.176 217.279 57.632C217.081 57.088 216.983 56.4613 216.983 55.752C216.983 55.1867 217.071 54.6587 217.247 54.168C217.428 53.6773 217.684 53.2507 218.015 52.888C218.351 52.5253 218.756 52.24 219.231 52.032C219.711 51.8187 220.252 51.712 220.855 51.712C221.356 51.712 221.82 51.7947 222.247 51.96C222.673 52.12 223.041 52.3573 223.351 52.672C223.66 52.9867 223.9 53.3733 224.071 53.832C224.247 54.2853 224.335 54.8027 224.335 55.384C224.335 55.6507 224.305 55.8293 224.247 55.92C224.188 56.0107 224.081 56.056 223.927 56.056H218.687Z" fill="#4D5657"/>
</g>
<g filter="url(#filter1_d_144_67)">
<rect x="17" y="104" width="355" height="62" rx="20" fill="white"/>
<path opacity="0.3" d="M49.904 127.48V139H48.032V133.872H42.248V139H40.368V127.48H42.248V132.52H48.032V127.48H49.904ZM57.4313 134C57.4313 133.712 57.3886 133.445 57.3033 133.2C57.2233 132.949 57.1033 132.733 56.9433 132.552C56.7833 132.365 56.5833 132.221 56.3433 132.12C56.1086 132.013 55.8366 131.96 55.5273 131.96C54.9033 131.96 54.4126 132.139 54.0553 132.496C53.6979 132.853 53.4713 133.355 53.3753 134H57.4313ZM53.3273 135.056C53.3486 135.52 53.4206 135.923 53.5433 136.264C53.6659 136.6 53.8286 136.88 54.0313 137.104C54.2393 137.328 54.4846 137.496 54.7673 137.608C55.0553 137.715 55.3753 137.768 55.7273 137.768C56.0633 137.768 56.3539 137.731 56.5993 137.656C56.8446 137.576 57.0579 137.491 57.2393 137.4C57.4206 137.304 57.5753 137.219 57.7033 137.144C57.8313 137.064 57.9486 137.024 58.0553 137.024C58.1939 137.024 58.3006 137.077 58.3753 137.184L58.8633 137.816C58.6606 138.056 58.4313 138.259 58.1753 138.424C57.9193 138.589 57.6473 138.725 57.3593 138.832C57.0713 138.933 56.7753 139.005 56.4713 139.048C56.1673 139.096 55.8713 139.12 55.5833 139.12C55.0179 139.12 54.4926 139.027 54.0073 138.84C53.5273 138.648 53.1086 138.368 52.7513 138C52.3993 137.632 52.1219 137.176 51.9193 136.632C51.7219 136.088 51.6233 135.461 51.6233 134.752C51.6233 134.187 51.7113 133.659 51.8873 133.168C52.0686 132.677 52.3246 132.251 52.6553 131.888C52.9913 131.525 53.3966 131.24 53.8713 131.032C54.3513 130.819 54.8926 130.712 55.4953 130.712C55.9966 130.712 56.4606 130.795 56.8873 130.96C57.3139 131.12 57.6819 131.357 57.9913 131.672C58.3006 131.987 58.5406 132.373 58.7113 132.832C58.8873 133.285 58.9753 133.803 58.9753 134.384C58.9753 134.651 58.9459 134.829 58.8873 134.92C58.8286 135.011 58.7219 135.056 58.5673 135.056H53.3273ZM64.9393 135.432C64.3259 135.453 63.8086 135.504 63.3873 135.584C62.9659 135.659 62.6246 135.757 62.3633 135.88C62.1019 135.997 61.9126 136.139 61.7953 136.304C61.6833 136.469 61.6273 136.651 61.6273 136.848C61.6273 137.04 61.6566 137.205 61.7153 137.344C61.7793 137.477 61.8646 137.589 61.9713 137.68C62.0833 137.765 62.2113 137.829 62.3553 137.872C62.5046 137.909 62.6673 137.928 62.8433 137.928C63.2913 137.928 63.6753 137.845 63.9953 137.68C64.3206 137.509 64.6353 137.264 64.9393 136.944V135.432ZM60.3793 131.976C61.3019 131.117 62.4006 130.688 63.6753 130.688C64.1446 130.688 64.5606 130.765 64.9233 130.92C65.2913 131.069 65.5979 131.283 65.8433 131.56C66.0939 131.837 66.2833 132.168 66.4113 132.552C66.5446 132.931 66.6113 133.352 66.6113 133.816V139H65.8433C65.6779 139 65.5526 138.976 65.4673 138.928C65.3819 138.875 65.3099 138.771 65.2513 138.616L65.0833 137.952C64.8753 138.139 64.6699 138.307 64.4673 138.456C64.2646 138.6 64.0539 138.723 63.8353 138.824C63.6219 138.925 63.3899 139 63.1393 139.048C62.8939 139.101 62.6219 139.128 62.3233 139.128C61.9926 139.128 61.6833 139.083 61.3953 138.992C61.1126 138.901 60.8673 138.765 60.6593 138.584C60.4513 138.397 60.2859 138.168 60.1633 137.896C60.0459 137.624 59.9873 137.304 59.9873 136.936C59.9873 136.621 60.0699 136.315 60.2353 136.016C60.4059 135.717 60.6833 135.451 61.0673 135.216C61.4566 134.976 61.9659 134.779 62.5953 134.624C63.2299 134.469 64.0113 134.381 64.9393 134.36V133.816C64.9393 133.229 64.8139 132.792 64.5633 132.504C64.3126 132.216 63.9446 132.072 63.4593 132.072C63.1286 132.072 62.8513 132.115 62.6273 132.2C62.4033 132.28 62.2086 132.368 62.0433 132.464C61.8779 132.56 61.7313 132.651 61.6033 132.736C61.4753 132.816 61.3393 132.856 61.1953 132.856C61.0779 132.856 60.9766 132.827 60.8913 132.768C60.8113 132.704 60.7446 132.627 60.6913 132.536L60.3793 131.976ZM73.8341 132.848C73.5941 132.539 73.3301 132.323 73.0421 132.2C72.7541 132.077 72.4421 132.016 72.1061 132.016C71.4341 132.016 70.9088 132.264 70.5301 132.76C70.1515 133.251 69.9621 133.979 69.9621 134.944C69.9621 135.445 70.0048 135.875 70.0901 136.232C70.1755 136.584 70.2981 136.872 70.4581 137.096C70.6181 137.32 70.8128 137.483 71.0421 137.584C71.2715 137.685 71.5301 137.736 71.8181 137.736C72.2555 137.736 72.6315 137.643 72.9461 137.456C73.2661 137.264 73.5621 136.995 73.8341 136.648V132.848ZM75.5541 127.16V139H74.5141C74.2848 139 74.1381 138.891 74.0741 138.672L73.9221 137.784C73.5808 138.184 73.1915 138.507 72.7541 138.752C72.3221 138.997 71.8181 139.12 71.2421 139.12C70.7835 139.12 70.3675 139.029 69.9941 138.848C69.6208 138.661 69.3008 138.392 69.0341 138.04C68.7675 137.688 68.5595 137.253 68.4101 136.736C68.2661 136.213 68.1941 135.616 68.1941 134.944C68.1941 134.336 68.2741 133.773 68.4341 133.256C68.5995 132.739 68.8341 132.291 69.1381 131.912C69.4421 131.528 69.8101 131.229 70.2421 131.016C70.6795 130.797 71.1675 130.688 71.7061 130.688C72.1861 130.688 72.5941 130.765 72.9301 130.92C73.2661 131.069 73.5675 131.28 73.8341 131.552V127.16H75.5541ZM83.0094 134C83.0094 133.712 82.9667 133.445 82.8814 133.2C82.8014 132.949 82.6814 132.733 82.5214 132.552C82.3614 132.365 82.1614 132.221 81.9214 132.12C81.6867 132.013 81.4147 131.96 81.1054 131.96C80.4814 131.96 79.9907 132.139 79.6334 132.496C79.276 132.853 79.0494 133.355 78.9534 134H83.0094ZM78.9054 135.056C78.9267 135.52 78.9987 135.923 79.1214 136.264C79.244 136.6 79.4067 136.88 79.6094 137.104C79.8174 137.328 80.0627 137.496 80.3454 137.608C80.6334 137.715 80.9534 137.768 81.3054 137.768C81.6414 137.768 81.932 137.731 82.1774 137.656C82.4227 137.576 82.636 137.491 82.8174 137.4C82.9987 137.304 83.1534 137.219 83.2814 137.144C83.4094 137.064 83.5267 137.024 83.6334 137.024C83.772 137.024 83.8787 137.077 83.9534 137.184L84.4414 137.816C84.2387 138.056 84.0094 138.259 83.7534 138.424C83.4974 138.589 83.2254 138.725 82.9374 138.832C82.6494 138.933 82.3534 139.005 82.0494 139.048C81.7454 139.096 81.4494 139.12 81.1614 139.12C80.596 139.12 80.0707 139.027 79.5854 138.84C79.1054 138.648 78.6867 138.368 78.3294 138C77.9774 137.632 77.7 137.176 77.4974 136.632C77.3 136.088 77.2014 135.461 77.2014 134.752C77.2014 134.187 77.2894 133.659 77.4654 133.168C77.6467 132.677 77.9027 132.251 78.2334 131.888C78.5694 131.525 78.9747 131.24 79.4494 131.032C79.9294 130.819 80.4707 130.712 81.0734 130.712C81.5747 130.712 82.0387 130.795 82.4654 130.96C82.892 131.12 83.26 131.357 83.5694 131.672C83.8787 131.987 84.1187 132.373 84.2894 132.832C84.4654 133.285 84.5534 133.803 84.5534 134.384C84.5534 134.651 84.524 134.829 84.4654 134.92C84.4067 135.011 84.3 135.056 84.1454 135.056H78.9054ZM87.7814 132.352C88.0374 131.835 88.3467 131.429 88.7094 131.136C89.072 130.837 89.5067 130.688 90.0134 130.688C90.1894 130.688 90.3547 130.709 90.5094 130.752C90.664 130.789 90.8027 130.848 90.9254 130.928L90.8054 132.224C90.784 132.315 90.7494 132.379 90.7014 132.416C90.6587 132.448 90.6 132.464 90.5254 132.464C90.4454 132.464 90.3307 132.451 90.1814 132.424C90.032 132.392 89.8747 132.376 89.7094 132.376C89.4694 132.376 89.256 132.411 89.0694 132.48C88.888 132.549 88.7227 132.651 88.5734 132.784C88.4294 132.917 88.3014 133.08 88.1894 133.272C88.0774 133.464 87.9734 133.683 87.8774 133.928V139H86.1574V130.84H87.1574C87.3387 130.84 87.464 130.875 87.5334 130.944C87.6027 131.008 87.6507 131.123 87.6774 131.288L87.7814 132.352ZM96.2563 139V132.208L95.4563 132.096C95.3229 132.069 95.2136 132.021 95.1283 131.952C95.0483 131.883 95.0083 131.784 95.0083 131.656V130.952H96.2563V130.264C96.2563 129.8 96.3229 129.384 96.4563 129.016C96.5949 128.648 96.7896 128.336 97.0403 128.08C97.2963 127.824 97.6056 127.629 97.9683 127.496C98.3309 127.357 98.7389 127.288 99.1923 127.288C99.3789 127.288 99.5549 127.301 99.7203 127.328C99.8909 127.355 100.056 127.395 100.216 127.448L100.184 128.312C100.174 128.456 100.102 128.541 99.9683 128.568C99.8403 128.595 99.6776 128.608 99.4803 128.608C99.2403 128.608 99.0243 128.637 98.8323 128.696C98.6403 128.749 98.4749 128.843 98.3363 128.976C98.2029 129.109 98.0989 129.285 98.0243 129.504C97.9549 129.723 97.9203 129.995 97.9203 130.32V130.952H100.152V132.192H97.9763V139H96.2563ZM104.67 130.712C105.272 130.712 105.816 130.811 106.302 131.008C106.792 131.205 107.208 131.485 107.55 131.848C107.896 132.211 108.163 132.651 108.35 133.168C108.536 133.685 108.63 134.267 108.63 134.912C108.63 135.557 108.536 136.139 108.35 136.656C108.163 137.173 107.896 137.616 107.55 137.984C107.208 138.347 106.792 138.627 106.302 138.824C105.816 139.021 105.272 139.12 104.67 139.12C104.062 139.12 103.512 139.021 103.022 138.824C102.536 138.627 102.12 138.347 101.774 137.984C101.427 137.616 101.16 137.173 100.974 136.656C100.787 136.139 100.694 135.557 100.694 134.912C100.694 134.267 100.787 133.685 100.974 133.168C101.16 132.651 101.427 132.211 101.774 131.848C102.12 131.485 102.536 131.205 103.022 131.008C103.512 130.811 104.062 130.712 104.67 130.712ZM104.67 137.776C105.406 137.776 105.952 137.531 106.31 137.04C106.672 136.544 106.854 135.837 106.854 134.92C106.854 134.003 106.672 133.296 106.31 132.8C105.952 132.299 105.406 132.048 104.67 132.048C103.923 132.048 103.368 132.299 103.006 132.8C102.643 133.296 102.462 134.003 102.462 134.92C102.462 135.837 102.643 136.544 103.006 137.04C103.368 137.531 103.923 137.776 104.67 137.776ZM111.906 132.352C112.162 131.835 112.472 131.429 112.834 131.136C113.197 130.837 113.632 130.688 114.138 130.688C114.314 130.688 114.48 130.709 114.634 130.752C114.789 130.789 114.928 130.848 115.05 130.928L114.93 132.224C114.909 132.315 114.874 132.379 114.826 132.416C114.784 132.448 114.725 132.464 114.65 132.464C114.57 132.464 114.456 132.451 114.306 132.424C114.157 132.392 114 132.376 113.834 132.376C113.594 132.376 113.381 132.411 113.194 132.48C113.013 132.549 112.848 132.651 112.698 132.784C112.554 132.917 112.426 133.08 112.314 133.272C112.202 133.464 112.098 133.683 112.002 133.928V139H110.282V130.84H111.282C111.464 130.84 111.589 130.875 111.658 130.944C111.728 131.008 111.776 131.123 111.802 131.288L111.906 132.352ZM126.663 130.84L122.167 141.32C122.108 141.443 122.036 141.539 121.951 141.608C121.871 141.677 121.746 141.712 121.575 141.712H120.303L121.807 138.448L118.479 130.84H119.975C120.119 130.84 120.228 130.875 120.303 130.944C120.383 131.008 120.442 131.085 120.479 131.176L122.423 135.808C122.471 135.941 122.514 136.075 122.551 136.208C122.594 136.336 122.634 136.469 122.671 136.608C122.714 136.469 122.756 136.333 122.799 136.2C122.842 136.067 122.89 135.933 122.943 135.8L124.807 131.176C124.844 131.08 124.906 131 124.991 130.936C125.082 130.872 125.18 130.84 125.287 130.84H126.663ZM131.076 130.712C131.679 130.712 132.223 130.811 132.708 131.008C133.199 131.205 133.615 131.485 133.956 131.848C134.303 132.211 134.569 132.651 134.756 133.168C134.943 133.685 135.036 134.267 135.036 134.912C135.036 135.557 134.943 136.139 134.756 136.656C134.569 137.173 134.303 137.616 133.956 137.984C133.615 138.347 133.199 138.627 132.708 138.824C132.223 139.021 131.679 139.12 131.076 139.12C130.468 139.12 129.919 139.021 129.428 138.824C128.943 138.627 128.527 138.347 128.18 137.984C127.833 137.616 127.567 137.173 127.38 136.656C127.193 136.139 127.1 135.557 127.1 134.912C127.1 134.267 127.193 133.685 127.38 133.168C127.567 132.651 127.833 132.211 128.18 131.848C128.527 131.485 128.943 131.205 129.428 131.008C129.919 130.811 130.468 130.712 131.076 130.712ZM131.076 137.776C131.812 137.776 132.359 137.531 132.716 137.04C133.079 136.544 133.26 135.837 133.26 134.92C133.26 134.003 133.079 133.296 132.716 132.8C132.359 132.299 131.812 132.048 131.076 132.048C130.329 132.048 129.775 132.299 129.412 132.8C129.049 133.296 128.868 134.003 128.868 134.92C128.868 135.837 129.049 136.544 129.412 137.04C129.775 137.531 130.329 137.776 131.076 137.776ZM143.569 130.84V139H142.529C142.299 139 142.153 138.891 142.089 138.672L141.961 137.912C141.79 138.093 141.609 138.259 141.417 138.408C141.23 138.557 141.03 138.685 140.817 138.792C140.603 138.899 140.374 138.981 140.129 139.04C139.889 139.099 139.63 139.128 139.353 139.128C138.905 139.128 138.51 139.053 138.169 138.904C137.827 138.755 137.539 138.544 137.305 138.272C137.075 138 136.902 137.675 136.785 137.296C136.667 136.912 136.609 136.491 136.609 136.032V130.84H138.329V136.032C138.329 136.581 138.454 137.008 138.705 137.312C138.961 137.616 139.347 137.768 139.865 137.768C140.243 137.768 140.595 137.683 140.921 137.512C141.251 137.336 141.561 137.096 141.849 136.792V130.84H143.569ZM160.778 130.84L158.162 139H156.794C156.634 139 156.522 138.896 156.458 138.688L154.834 133.608C154.791 133.464 154.751 133.32 154.714 133.176C154.682 133.032 154.652 132.891 154.626 132.752C154.567 133.04 154.495 133.328 154.41 133.616L152.762 138.688C152.703 138.896 152.578 139 152.386 139H151.082L148.466 130.84H149.826C149.959 130.84 150.068 130.875 150.154 130.944C150.244 131.008 150.303 131.085 150.33 131.176L151.69 135.928C151.743 136.147 151.788 136.36 151.826 136.568C151.868 136.771 151.906 136.973 151.938 137.176C151.991 136.973 152.047 136.771 152.106 136.568C152.164 136.36 152.226 136.147 152.29 135.928L153.818 131.152C153.844 131.056 153.898 130.979 153.978 130.92C154.063 130.856 154.164 130.824 154.282 130.824H155.034C155.156 130.824 155.26 130.856 155.346 130.92C155.431 130.979 155.487 131.056 155.514 131.152L157.002 135.928C157.066 136.147 157.124 136.36 157.178 136.568C157.236 136.776 157.29 136.984 157.338 137.192C157.375 136.989 157.415 136.784 157.458 136.576C157.5 136.368 157.551 136.152 157.61 135.928L158.994 131.176C159.026 131.08 159.084 131 159.17 130.936C159.255 130.872 159.359 130.84 159.482 130.84H160.778ZM167.259 134C167.259 133.712 167.217 133.445 167.131 133.2C167.051 132.949 166.931 132.733 166.771 132.552C166.611 132.365 166.411 132.221 166.171 132.12C165.937 132.013 165.665 131.96 165.355 131.96C164.731 131.96 164.241 132.139 163.883 132.496C163.526 132.853 163.299 133.355 163.203 134H167.259ZM163.155 135.056C163.177 135.52 163.249 135.923 163.371 136.264C163.494 136.6 163.657 136.88 163.859 137.104C164.067 137.328 164.313 137.496 164.595 137.608C164.883 137.715 165.203 137.768 165.555 137.768C165.891 137.768 166.182 137.731 166.427 137.656C166.673 137.576 166.886 137.491 167.067 137.4C167.249 137.304 167.403 137.219 167.531 137.144C167.659 137.064 167.777 137.024 167.883 137.024C168.022 137.024 168.129 137.077 168.203 137.184L168.691 137.816C168.489 138.056 168.259 138.259 168.003 138.424C167.747 138.589 167.475 138.725 167.187 138.832C166.899 138.933 166.603 139.005 166.299 139.048C165.995 139.096 165.699 139.12 165.411 139.12C164.846 139.12 164.321 139.027 163.835 138.84C163.355 138.648 162.937 138.368 162.579 138C162.227 137.632 161.95 137.176 161.747 136.632C161.55 136.088 161.451 135.461 161.451 134.752C161.451 134.187 161.539 133.659 161.715 133.168C161.897 132.677 162.153 132.251 162.483 131.888C162.819 131.525 163.225 131.24 163.699 131.032C164.179 130.819 164.721 130.712 165.323 130.712C165.825 130.712 166.289 130.795 166.715 130.96C167.142 131.12 167.51 131.357 167.819 131.672C168.129 131.987 168.369 132.373 168.539 132.832C168.715 133.285 168.803 133.803 168.803 134.384C168.803 134.651 168.774 134.829 168.715 134.92C168.657 135.011 168.55 135.056 168.395 135.056H163.155ZM172.127 136.952C172.367 137.261 172.629 137.48 172.911 137.608C173.199 137.731 173.511 137.792 173.847 137.792C174.525 137.792 175.053 137.547 175.431 137.056C175.81 136.565 175.999 135.805 175.999 134.776C175.999 133.837 175.834 133.152 175.503 132.72C175.178 132.288 174.711 132.072 174.103 132.072C173.682 132.072 173.314 132.168 172.999 132.36C172.69 132.547 172.399 132.816 172.127 133.168V136.952ZM172.127 131.92C172.463 131.552 172.839 131.259 173.255 131.04C173.671 130.821 174.146 130.712 174.679 130.712C175.154 130.712 175.581 130.805 175.959 130.992C176.343 131.173 176.669 131.437 176.935 131.784C177.202 132.131 177.407 132.552 177.551 133.048C177.695 133.539 177.767 134.093 177.767 134.712C177.767 135.373 177.685 135.976 177.519 136.52C177.359 137.059 177.127 137.523 176.823 137.912C176.519 138.296 176.151 138.595 175.719 138.808C175.287 139.016 174.805 139.12 174.271 139.12C174.01 139.12 173.773 139.093 173.559 139.04C173.346 138.992 173.149 138.92 172.967 138.824C172.786 138.728 172.618 138.613 172.463 138.48C172.314 138.347 172.17 138.195 172.031 138.024L171.959 138.656C171.933 138.779 171.885 138.867 171.815 138.92C171.746 138.973 171.65 139 171.527 139H170.407V127.16H172.127V131.92ZM184.311 132.32C184.268 132.395 184.22 132.448 184.167 132.48C184.113 132.512 184.047 132.528 183.967 132.528C183.876 132.528 183.777 132.501 183.671 132.448C183.564 132.389 183.439 132.325 183.295 132.256C183.151 132.187 182.98 132.125 182.783 132.072C182.591 132.013 182.364 131.984 182.103 131.984C181.889 131.984 181.695 132.011 181.519 132.064C181.348 132.112 181.201 132.184 181.079 132.28C180.961 132.371 180.871 132.48 180.807 132.608C180.743 132.731 180.711 132.864 180.711 133.008C180.711 133.2 180.769 133.36 180.887 133.488C181.004 133.616 181.159 133.728 181.351 133.824C181.543 133.915 181.761 133.997 182.007 134.072C182.252 134.147 182.503 134.227 182.759 134.312C183.015 134.397 183.265 134.496 183.511 134.608C183.756 134.72 183.975 134.859 184.167 135.024C184.359 135.184 184.513 135.381 184.631 135.616C184.748 135.845 184.807 136.125 184.807 136.456C184.807 136.84 184.737 137.195 184.599 137.52C184.46 137.845 184.257 138.128 183.991 138.368C183.724 138.608 183.391 138.795 182.991 138.928C182.596 139.061 182.143 139.128 181.631 139.128C181.348 139.128 181.073 139.101 180.807 139.048C180.545 139 180.295 138.933 180.055 138.848C179.82 138.757 179.599 138.651 179.391 138.528C179.188 138.405 179.007 138.272 178.847 138.128L179.247 137.472C179.295 137.392 179.353 137.331 179.423 137.288C179.497 137.24 179.588 137.216 179.695 137.216C179.807 137.216 179.916 137.253 180.023 137.328C180.135 137.397 180.263 137.475 180.407 137.56C180.556 137.645 180.735 137.725 180.943 137.8C181.151 137.869 181.409 137.904 181.719 137.904C181.975 137.904 182.196 137.875 182.383 137.816C182.569 137.752 182.724 137.667 182.847 137.56C182.969 137.453 183.06 137.333 183.119 137.2C183.177 137.061 183.207 136.915 183.207 136.76C183.207 136.552 183.148 136.381 183.031 136.248C182.913 136.115 182.756 136 182.559 135.904C182.367 135.808 182.145 135.723 181.895 135.648C181.649 135.573 181.399 135.493 181.143 135.408C180.887 135.323 180.633 135.224 180.383 135.112C180.137 135 179.916 134.859 179.719 134.688C179.527 134.512 179.372 134.301 179.255 134.056C179.137 133.805 179.079 133.501 179.079 133.144C179.079 132.819 179.143 132.509 179.271 132.216C179.404 131.923 179.596 131.664 179.847 131.44C180.103 131.216 180.415 131.04 180.783 130.912C181.156 130.779 181.585 130.712 182.071 130.712C182.62 130.712 183.119 130.8 183.567 130.976C184.015 131.152 184.391 131.392 184.695 131.696L184.311 132.32ZM188.215 130.84V139H186.495V130.84H188.215ZM188.503 128.376C188.503 128.531 188.471 128.677 188.407 128.816C188.348 128.955 188.266 129.077 188.159 129.184C188.052 129.285 187.927 129.368 187.783 129.432C187.644 129.491 187.495 129.52 187.335 129.52C187.18 129.52 187.034 129.491 186.895 129.432C186.762 129.368 186.644 129.285 186.543 129.184C186.442 129.077 186.359 128.955 186.295 128.816C186.236 128.677 186.207 128.531 186.207 128.376C186.207 128.216 186.236 128.067 186.295 127.928C186.359 127.789 186.442 127.669 186.543 127.568C186.644 127.461 186.762 127.379 186.895 127.32C187.034 127.256 187.18 127.224 187.335 127.224C187.495 127.224 187.644 127.256 187.783 127.32C187.927 127.379 188.052 127.461 188.159 127.568C188.266 127.669 188.348 127.789 188.407 127.928C188.471 128.067 188.503 128.216 188.503 128.376ZM192.992 139.128C192.315 139.128 191.792 138.939 191.424 138.56C191.061 138.176 190.88 137.637 190.88 136.944V132.192H189.984C189.888 132.192 189.805 132.163 189.736 132.104C189.667 132.04 189.632 131.947 189.632 131.824V131.128L190.952 130.936L191.328 128.576C191.355 128.485 191.4 128.413 191.464 128.36C191.528 128.301 191.613 128.272 191.72 128.272H192.6V130.952H194.864V132.192H192.6V136.824C192.6 137.117 192.672 137.341 192.816 137.496C192.96 137.651 193.152 137.728 193.392 137.728C193.525 137.728 193.64 137.712 193.736 137.68C193.832 137.643 193.915 137.605 193.984 137.568C194.053 137.525 194.112 137.488 194.16 137.456C194.213 137.419 194.264 137.4 194.312 137.4C194.408 137.4 194.485 137.453 194.544 137.56L195.056 138.4C194.789 138.635 194.475 138.816 194.112 138.944C193.749 139.067 193.376 139.128 192.992 139.128ZM201.509 134C201.509 133.712 201.467 133.445 201.381 133.2C201.301 132.949 201.181 132.733 201.021 132.552C200.861 132.365 200.661 132.221 200.421 132.12C200.187 132.013 199.915 131.96 199.605 131.96C198.981 131.96 198.491 132.139 198.133 132.496C197.776 132.853 197.549 133.355 197.453 134H201.509ZM197.405 135.056C197.427 135.52 197.499 135.923 197.621 136.264C197.744 136.6 197.907 136.88 198.109 137.104C198.317 137.328 198.563 137.496 198.845 137.608C199.133 137.715 199.453 137.768 199.805 137.768C200.141 137.768 200.432 137.731 200.677 137.656C200.923 137.576 201.136 137.491 201.317 137.4C201.499 137.304 201.653 137.219 201.781 137.144C201.909 137.064 202.027 137.024 202.133 137.024C202.272 137.024 202.379 137.077 202.453 137.184L202.941 137.816C202.739 138.056 202.509 138.259 202.253 138.424C201.997 138.589 201.725 138.725 201.437 138.832C201.149 138.933 200.853 139.005 200.549 139.048C200.245 139.096 199.949 139.12 199.661 139.12C199.096 139.12 198.571 139.027 198.085 138.84C197.605 138.648 197.187 138.368 196.829 138C196.477 137.632 196.2 137.176 195.997 136.632C195.8 136.088 195.701 135.461 195.701 134.752C195.701 134.187 195.789 133.659 195.965 133.168C196.147 132.677 196.403 132.251 196.733 131.888C197.069 131.525 197.475 131.24 197.949 131.032C198.429 130.819 198.971 130.712 199.573 130.712C200.075 130.712 200.539 130.795 200.965 130.96C201.392 131.12 201.76 131.357 202.069 131.672C202.379 131.987 202.619 132.373 202.789 132.832C202.965 133.285 203.053 133.803 203.053 134.384C203.053 134.651 203.024 134.829 202.965 134.92C202.907 135.011 202.8 135.056 202.645 135.056H197.405Z" fill="#4D5657"/>
</g>
<rect x="17" y="183" width="355" height="48" rx="18" fill="#282F30"/>
<path d="M182.202 197.463C182.125 197.589 182.045 197.683 181.961 197.746C181.877 197.802 181.772 197.83 181.646 197.83C181.513 197.83 181.362 197.774 181.194 197.662C181.033 197.55 180.83 197.428 180.585 197.295C180.347 197.155 180.064 197.029 179.735 196.917C179.406 196.798 179.014 196.738 178.559 196.738C178.139 196.738 177.768 196.791 177.446 196.896C177.131 197.001 176.865 197.148 176.648 197.337C176.431 197.526 176.266 197.75 176.154 198.009C176.049 198.261 175.997 198.537 175.997 198.838C175.997 199.223 176.098 199.545 176.301 199.804C176.504 200.056 176.77 200.273 177.099 200.455C177.435 200.637 177.817 200.798 178.244 200.938C178.671 201.071 179.105 201.215 179.546 201.369C179.994 201.523 180.431 201.698 180.858 201.894C181.285 202.09 181.663 202.338 181.992 202.639C182.328 202.94 182.598 203.308 182.801 203.742C183.004 204.176 183.105 204.704 183.105 205.327C183.105 205.999 182.99 206.629 182.759 207.217C182.528 207.805 182.192 208.32 181.751 208.761C181.317 209.195 180.778 209.538 180.134 209.79C179.497 210.042 178.769 210.168 177.95 210.168C177.467 210.168 176.994 210.119 176.532 210.021C176.077 209.93 175.64 209.8 175.22 209.632C174.807 209.457 174.418 209.247 174.054 209.002C173.69 208.757 173.365 208.484 173.078 208.183L173.792 207.007C173.855 206.909 173.935 206.832 174.033 206.776C174.131 206.72 174.24 206.692 174.359 206.692C174.52 206.692 174.698 206.769 174.894 206.923C175.09 207.07 175.325 207.235 175.598 207.417C175.878 207.592 176.214 207.756 176.606 207.91C176.998 208.057 177.467 208.131 178.013 208.131C178.902 208.131 179.588 207.914 180.071 207.48C180.561 207.046 180.806 206.447 180.806 205.684C180.806 205.257 180.704 204.911 180.501 204.645C180.298 204.372 180.029 204.144 179.693 203.962C179.364 203.78 178.986 203.626 178.559 203.5C178.132 203.374 177.698 203.241 177.257 203.101C176.816 202.954 176.382 202.786 175.955 202.597C175.528 202.401 175.146 202.149 174.81 201.841C174.481 201.526 174.215 201.141 174.012 200.686C173.809 200.224 173.708 199.65 173.708 198.965C173.708 198.418 173.813 197.89 174.023 197.379C174.24 196.868 174.551 196.416 174.957 196.024C175.37 195.625 175.878 195.307 176.48 195.069C177.082 194.831 177.768 194.712 178.538 194.712C179.406 194.712 180.2 194.848 180.921 195.121C181.649 195.394 182.276 195.783 182.801 196.287L182.202 197.463ZM190.918 205.317C190.113 205.345 189.434 205.411 188.881 205.516C188.328 205.614 187.88 205.744 187.537 205.905C187.194 206.059 186.946 206.244 186.792 206.461C186.645 206.678 186.571 206.916 186.571 207.175C186.571 207.427 186.61 207.644 186.687 207.826C186.771 208.001 186.883 208.148 187.023 208.267C187.17 208.379 187.338 208.463 187.527 208.519C187.723 208.568 187.936 208.593 188.167 208.593C188.755 208.593 189.259 208.484 189.679 208.267C190.106 208.043 190.519 207.721 190.918 207.302V205.317ZM184.933 200.781C186.144 199.654 187.586 199.09 189.259 199.09C189.875 199.09 190.421 199.192 190.897 199.395C191.38 199.591 191.783 199.871 192.105 200.235C192.434 200.599 192.682 201.033 192.85 201.537C193.025 202.034 193.113 202.587 193.113 203.196V210H192.105C191.888 210 191.723 209.968 191.611 209.905C191.499 209.835 191.405 209.699 191.328 209.496L191.107 208.624C190.834 208.869 190.565 209.09 190.299 209.286C190.033 209.475 189.756 209.636 189.469 209.769C189.189 209.902 188.885 210 188.556 210.063C188.234 210.133 187.877 210.168 187.485 210.168C187.051 210.168 186.645 210.109 186.267 209.989C185.896 209.87 185.574 209.692 185.301 209.454C185.028 209.209 184.811 208.908 184.65 208.551C184.496 208.194 184.419 207.774 184.419 207.291C184.419 206.878 184.527 206.475 184.744 206.083C184.968 205.691 185.332 205.341 185.836 205.033C186.347 204.718 187.016 204.459 187.842 204.256C188.675 204.053 189.7 203.938 190.918 203.91V203.196C190.918 202.426 190.754 201.852 190.425 201.474C190.096 201.096 189.613 200.907 188.976 200.907C188.542 200.907 188.178 200.963 187.884 201.075C187.59 201.18 187.334 201.295 187.117 201.421C186.9 201.547 186.708 201.666 186.54 201.778C186.372 201.883 186.193 201.936 186.004 201.936C185.85 201.936 185.717 201.897 185.605 201.82C185.5 201.736 185.413 201.635 185.343 201.516L184.933 200.781ZM204.94 199.29L200.635 210H198.598L194.293 199.29H196.152C196.327 199.29 196.47 199.335 196.582 199.426C196.701 199.51 196.778 199.612 196.813 199.731L199.186 205.968C199.284 206.262 199.372 206.552 199.449 206.839C199.526 207.126 199.592 207.417 199.648 207.711C199.704 207.417 199.771 207.13 199.848 206.85C199.932 206.563 200.023 206.269 200.121 205.968L202.536 199.731C202.578 199.605 202.655 199.5 202.767 199.416C202.879 199.332 203.015 199.29 203.176 199.29H204.94ZM213.2 203.438C213.2 203.059 213.144 202.709 213.032 202.387C212.927 202.058 212.769 201.775 212.559 201.537C212.349 201.292 212.087 201.103 211.772 200.97C211.464 200.83 211.107 200.76 210.701 200.76C209.882 200.76 209.238 200.994 208.769 201.463C208.3 201.932 208.002 202.59 207.876 203.438H213.2ZM207.813 204.823C207.841 205.432 207.936 205.961 208.097 206.409C208.258 206.85 208.471 207.217 208.737 207.511C209.01 207.805 209.332 208.026 209.703 208.173C210.081 208.313 210.501 208.383 210.963 208.383C211.404 208.383 211.786 208.334 212.108 208.236C212.43 208.131 212.71 208.019 212.948 207.9C213.186 207.774 213.389 207.662 213.557 207.564C213.725 207.459 213.879 207.406 214.019 207.406C214.201 207.406 214.341 207.476 214.439 207.616L215.079 208.446C214.813 208.761 214.512 209.027 214.176 209.244C213.84 209.461 213.483 209.639 213.105 209.779C212.727 209.912 212.339 210.007 211.94 210.063C211.541 210.126 211.152 210.158 210.774 210.158C210.032 210.158 209.343 210.035 208.706 209.79C208.076 209.538 207.526 209.17 207.057 208.688C206.595 208.204 206.231 207.606 205.965 206.892C205.706 206.178 205.577 205.355 205.577 204.424C205.577 203.682 205.692 202.989 205.923 202.345C206.161 201.701 206.497 201.141 206.931 200.665C207.372 200.189 207.904 199.815 208.527 199.542C209.157 199.262 209.868 199.122 210.659 199.122C211.317 199.122 211.926 199.23 212.486 199.448C213.046 199.657 213.529 199.969 213.935 200.382C214.341 200.795 214.656 201.302 214.88 201.904C215.111 202.499 215.226 203.178 215.226 203.941C215.226 204.291 215.188 204.526 215.111 204.645C215.034 204.764 214.894 204.823 214.691 204.823H207.813Z" fill="white"/>
</g>
<defs>
<filter id="filter0_d_144_67" x="-3" y="9" width="395" height="102" filterUnits="userSpaceOnUse" color-interpolation-filters="sRGB">
<feFlood flood-opacity="0" result="BackgroundImageFix"/>
<feColorMatrix in="SourceAlpha" type="matrix" values="0 0 0 0 0 0 0 0 0 0 0 0 0 0 0 0 0 0 127 0" result="hardAlpha"/>
<feOffset dy="4"/>
<feGaussianBlur stdDeviation="10"/>
<feComposite in2="hardAlpha" operator="out"/>
<feColorMatrix type="matrix" values="0 0 0 0 0 0 0 0 0 0 0 0 0 0 0 0 0 0 0.05 0"/>
<feBlend mode="normal" in2="BackgroundImageFix" result="effect1_dropShadow_144_67"/>
<feBlend mode="normal" in="SourceGraphic" in2="effect1_dropShadow_144_67" result="shape"/>
</filter>
<filter id="filter1_d_144_67" x="-3" y="88" width="395" height="102" filterUnits="userSpaceOnUse" color-interpolation-filters="sRGB">
<feFlood flood-opacity="0" result="BackgroundImageFix"/>
<feColorMatrix in="SourceAlpha" type="matrix" values="0 0 0 0 0 0 0 0 0 0 0 0 0 0 0 0 0 0 127 0" result="hardAlpha"/>
<feOffset dy="4"/>
<feGaussianBlur stdDeviation="10"/>
<feComposite in2="hardAlpha" operator="out"/>
<feColorMatrix type="matrix" values="0 0 0 0 0 0 0 0 0 0 0 0 0 0 0 0 0 0 0.05 0"/>
<feBlend mode="normal" in2="BackgroundImageFix" result="effect1_dropShadow_144_67"/>
<feBlend mode="normal" in="SourceGraphic" in2="effect1_dropShadow_144_67" result="shape"/>
</filter>
<clipPath id="clip0_144_67">
<rect width="389" height="256" rx="30" fill="white"/>
</clipPath>
</defs>
</svg>
