<svg width="249" height="246" viewBox="0 0 249 246" fill="none" xmlns="http://www.w3.org/2000/svg">
<rect x="3.5" width="245" height="246" rx="30" fill="#282F30"/>
<g opacity="0.2">
<mask id="mask0_142_19" style="mask-type:alpha" maskUnits="userSpaceOnUse" x="3" y="0" width="245" height="246">
<rect x="3" width="245" height="246" rx="30" fill="#282F30"/>
</mask>
<g mask="url(#mask0_142_19)">
<circle cx="176" cy="143" r="45.5" stroke="white"/>
<circle cx="176" cy="143" r="24.5" stroke="white"/>
<circle cx="176" cy="143" r="68.5" stroke="white"/>
<circle cx="176" cy="143" r="97.5" stroke="white"/>
<circle cx="176" cy="143" r="124.5" stroke="white"/>
<circle cx="176" cy="143" r="159.5" stroke="white"/>
<circle cx="176" cy="143" r="187.5" stroke="white"/>
<circle cx="176" cy="143" r="219.5" stroke="white"/>
</g>
</g>
<circle opacity="0.15" cx="56.5" cy="92.5" r="0.5" transform="rotate(180 56.5 92.5)" fill="white"/>
<circle opacity="0.15" cx="36.5" cy="32.5" r="0.5" transform="rotate(180 36.5 32.5)" fill="white"/>
<circle opacity="0.15" cx="57.5" cy="164.5" r="0.5" transform="rotate(180 57.5 164.5)" fill="white"/>
<circle opacity="0.15" cx="211.5" cy="144.5" r="0.5" transform="rotate(180 211.5 144.5)" fill="white"/>
<circle opacity="0.15" cx="191.5" cy="84.5" r="0.5" transform="rotate(180 191.5 84.5)" fill="white"/>
<circle opacity="0.15" cx="212.5" cy="216.5" r="0.5" transform="rotate(180 212.5 216.5)" fill="white"/>
<circle opacity="0.15" cx="65.5" cy="85.5" r="0.5" transform="rotate(180 65.5 85.5)" fill="white"/>
<circle opacity="0.15" cx="45.5" cy="25.5" r="0.5" transform="rotate(180 45.5 25.5)" fill="white"/>
<circle opacity="0.15" cx="66.5" cy="157.5" r="0.5" transform="rotate(180 66.5 157.5)" fill="white"/>
<circle opacity="0.15" cx="220.5" cy="137.5" r="0.5" transform="rotate(180 220.5 137.5)" fill="white"/>
<circle opacity="0.15" cx="200.5" cy="77.5" r="0.5" transform="rotate(180 200.5 77.5)" fill="white"/>
<circle opacity="0.15" cx="221.5" cy="209.5" r="0.5" transform="rotate(180 221.5 209.5)" fill="white"/>
<circle opacity="0.15" cx="54.5" cy="87.5" r="0.5" transform="rotate(180 54.5 87.5)" fill="white"/>
<circle opacity="0.15" cx="34.5" cy="27.5" r="0.5" transform="rotate(180 34.5 27.5)" fill="white"/>
<circle opacity="0.15" cx="55.5" cy="159.5" r="0.5" transform="rotate(180 55.5 159.5)" fill="white"/>
<circle opacity="0.15" cx="209.5" cy="139.5" r="0.5" transform="rotate(180 209.5 139.5)" fill="white"/>
<circle opacity="0.15" cx="189.5" cy="79.5" r="0.5" transform="rotate(180 189.5 79.5)" fill="white"/>
<circle opacity="0.15" cx="210.5" cy="211.5" r="0.5" transform="rotate(180 210.5 211.5)" fill="white"/>
<circle opacity="0.15" cx="49.5" cy="85.5" r="0.5" transform="rotate(180 49.5 85.5)" fill="white"/>
<circle opacity="0.15" cx="29.5" cy="25.5" r="0.5" transform="rotate(180 29.5 25.5)" fill="white"/>
<circle opacity="0.15" cx="50.5" cy="157.5" r="0.5" transform="rotate(180 50.5 157.5)" fill="white"/>
<circle opacity="0.15" cx="204.5" cy="137.5" r="0.5" transform="rotate(180 204.5 137.5)" fill="white"/>
<circle opacity="0.15" cx="59.5" cy="83.5" r="0.5" transform="rotate(180 59.5 83.5)" fill="white"/>
<circle opacity="0.15" cx="214.5" cy="135.5" r="0.5" transform="rotate(180 214.5 135.5)" fill="white"/>
<circle opacity="0.15" cx="197.5" cy="89.5" r="0.5" transform="rotate(180 197.5 89.5)" fill="white"/>
<circle opacity="0.15" cx="206.5" cy="82.5" r="0.5" transform="rotate(180 206.5 82.5)" fill="white"/>
<circle opacity="0.15" cx="195.5" cy="84.5" r="0.5" transform="rotate(180 195.5 84.5)" fill="white"/>
<circle opacity="0.15" cx="190.5" cy="82.5" r="0.5" transform="rotate(180 190.5 82.5)" fill="white"/>
<circle opacity="0.15" cx="200.5" cy="80.5" r="0.5" transform="rotate(180 200.5 80.5)" fill="white"/>
<g filter="url(#filter0_dd_142_19)">
<rect x="42.814" y="88.6367" width="166" height="49" rx="20" transform="rotate(5.16698 42.814 88.6367)" fill="#F1C40F"/>
<g clip-path="url(#clip0_142_19)">
<path d="M72.2939 114.142C72.4331 113.823 72.8972 113.865 72.9771 114.204L73.445 116.191C73.5481 116.628 73.7514 117.035 74.039 117.379C74.3266 117.724 74.6906 117.997 75.1019 118.176L76.972 118.993C77.2907 119.132 77.2488 119.596 76.9102 119.676L74.923 120.144C74.4861 120.247 74.0793 120.451 73.7347 120.738C73.3901 121.026 73.1172 121.39 72.9377 121.801L72.121 123.671C72.0908 123.741 72.0394 123.799 71.9741 123.838C71.9087 123.877 71.8327 123.895 71.757 123.888C71.6812 123.881 71.6096 123.85 71.5523 123.8C71.4949 123.75 71.4549 123.683 71.4378 123.609L70.9698 121.622C70.8669 121.185 70.6636 120.779 70.3762 120.434C70.0888 120.089 69.7251 119.817 69.3139 119.637L67.4428 118.82C67.373 118.79 67.3145 118.739 67.2756 118.673C67.2367 118.608 67.2195 118.532 67.2263 118.456C67.2332 118.38 67.2638 118.309 67.3137 118.251C67.3637 118.194 67.4305 118.154 67.5046 118.137L69.4918 117.669C69.9286 117.566 70.3353 117.363 70.6799 117.075C71.0245 116.788 71.2974 116.424 71.477 116.013L72.2939 114.142ZM68.9058 108.716C68.9239 108.674 68.9548 108.639 68.9941 108.616C69.0333 108.592 69.0789 108.582 69.1243 108.586C69.1698 108.59 69.2127 108.609 69.2472 108.639C69.2816 108.668 69.3057 108.708 69.3161 108.753L69.5969 109.945C69.7225 110.477 70.0903 110.917 70.5906 111.136L71.713 111.626C71.7549 111.645 71.7899 111.676 71.8132 111.715C71.8365 111.754 71.8468 111.8 71.8427 111.845C71.8386 111.89 71.8202 111.933 71.7903 111.968C71.7604 112.002 71.7204 112.026 71.6759 112.037L70.4838 112.318C70.2216 112.379 69.9773 112.501 69.7705 112.673C69.5637 112.846 69.4 113.064 69.2925 113.311L68.8024 114.434C68.7842 114.476 68.7533 114.511 68.7141 114.534C68.6748 114.557 68.6293 114.567 68.5838 114.563C68.5384 114.559 68.4954 114.541 68.461 114.511C68.4266 114.481 68.4025 114.441 68.3921 114.397L68.1113 113.204C68.0498 112.942 67.928 112.698 67.7554 112.491C67.5829 112.284 67.3645 112.121 67.1175 112.013L65.9951 111.523C65.9533 111.505 65.9182 111.474 65.895 111.435C65.8717 111.396 65.8614 111.35 65.8655 111.305C65.8696 111.259 65.8879 111.216 65.9178 111.182C65.9478 111.147 65.9878 111.123 66.0322 111.113L67.2244 110.832C67.4866 110.771 67.7308 110.649 67.9377 110.476C68.1445 110.304 68.3082 110.085 68.4157 109.838L68.9058 108.716ZM76.0405 108.308C76.0529 108.28 76.0736 108.257 76.0996 108.242C76.1256 108.227 76.1557 108.22 76.1857 108.223C76.2157 108.226 76.2442 108.238 76.267 108.257C76.2899 108.277 76.3061 108.303 76.3134 108.332L76.5006 109.126C76.584 109.481 76.8295 109.776 77.1637 109.921L77.9114 110.248C77.9388 110.26 77.9618 110.281 77.977 110.307C77.9921 110.333 77.9988 110.363 77.9961 110.393C77.9934 110.423 77.9814 110.452 77.9618 110.475C77.9422 110.497 77.9159 110.514 77.8867 110.521L77.0926 110.708C76.9178 110.75 76.755 110.831 76.6171 110.946C76.4791 111.061 76.3698 111.207 76.2977 111.371L75.971 112.119C75.9586 112.146 75.938 112.169 75.9119 112.185C75.8859 112.2 75.8558 112.206 75.8258 112.204C75.7958 112.201 75.7673 112.189 75.7445 112.169C75.7216 112.15 75.7054 112.123 75.6981 112.094L75.5109 111.3C75.4694 111.125 75.388 110.963 75.2729 110.825C75.1578 110.687 75.0123 110.577 74.8478 110.505L74.1011 110.179C74.0737 110.166 74.0507 110.146 74.0355 110.12C74.0204 110.094 74.0137 110.063 74.0164 110.033C74.0191 110.003 74.0311 109.975 74.0507 109.952C74.0703 109.929 74.0966 109.913 74.1258 109.906L74.9199 109.719C75.2749 109.635 75.5692 109.39 75.7148 109.055L76.0405 108.308Z" fill="white"/>
</g>
<path d="M96.1063 118.887L95.6956 123.429C94.4791 124.149 93.114 124.44 91.6002 124.303C90.6706 124.219 89.8417 124 89.1134 123.645C88.3909 123.285 87.7873 122.823 87.3027 122.26C86.8186 121.691 86.4656 121.036 86.2436 120.293C86.0216 119.55 85.9495 118.748 86.0273 117.887C86.1056 117.022 86.3153 116.243 86.6564 115.55C86.9979 114.853 87.4496 114.27 88.0114 113.801C88.5737 113.327 89.2314 112.983 89.9846 112.767C90.7382 112.546 91.5692 112.476 92.4775 112.559C92.9396 112.6 93.3638 112.676 93.7501 112.786C94.1423 112.891 94.5025 113.023 94.831 113.181C95.1594 113.339 95.4588 113.522 95.7293 113.728C95.9998 113.935 96.2445 114.16 96.4634 114.405L95.8524 115.209C95.7555 115.334 95.6391 115.407 95.5034 115.427C95.3678 115.447 95.2272 115.402 95.0818 115.292C94.936 115.188 94.78 115.077 94.6138 114.961C94.453 114.844 94.2648 114.734 94.0494 114.629C93.8345 114.518 93.5834 114.423 93.296 114.344C93.0092 114.259 92.6666 114.198 92.2682 114.162C91.6626 114.107 91.1064 114.159 90.5995 114.317C90.0984 114.469 89.6584 114.716 89.2795 115.057C88.9011 115.392 88.5952 115.814 88.3617 116.323C88.1282 116.832 87.9822 117.411 87.9236 118.059C87.8616 118.744 87.9044 119.366 88.052 119.926C88.2 120.48 88.4375 120.962 88.7646 121.372C89.0922 121.776 89.5021 122.1 89.9942 122.343C90.4917 122.586 91.0565 122.736 91.6885 122.793C92.1613 122.836 92.5855 122.823 92.9611 122.756C93.342 122.688 93.7186 122.58 94.0908 122.432L94.2969 120.153L92.6954 120.008C92.5732 119.997 92.4805 119.957 92.4172 119.887C92.3544 119.812 92.3278 119.721 92.3374 119.615L92.4332 118.555L96.1063 118.887ZM103.164 120.2C103.19 119.913 103.171 119.644 103.108 119.392C103.051 119.135 102.951 118.909 102.808 118.714C102.665 118.514 102.479 118.352 102.249 118.23C102.025 118.102 101.759 118.025 101.451 117.997C100.83 117.941 100.325 118.074 99.9367 118.398C99.5487 118.722 99.2778 119.201 99.1241 119.835L103.164 120.2ZM98.9811 120.882C98.9606 121.346 98.9961 121.754 99.0875 122.105C99.1794 122.45 99.3162 122.744 99.4978 122.985C99.6848 123.227 99.914 123.416 100.185 123.553C100.463 123.686 100.777 123.768 101.127 123.799C101.462 123.829 101.755 123.818 102.006 123.766C102.257 123.709 102.477 123.643 102.666 123.569C102.855 123.49 103.017 123.419 103.151 123.356C103.286 123.288 103.406 123.258 103.513 123.268C103.651 123.28 103.752 123.343 103.817 123.456L104.246 124.129C104.023 124.35 103.776 124.531 103.506 124.673C103.236 124.815 102.953 124.926 102.657 125.006C102.361 125.081 102.059 125.126 101.753 125.141C101.446 125.161 101.149 125.159 100.862 125.133C100.299 125.082 99.7842 124.942 99.3176 124.712C98.8568 124.478 98.4651 124.161 98.1424 123.762C97.8249 123.364 97.5898 122.885 97.4369 122.325C97.2894 121.765 97.2476 121.132 97.3115 120.426C97.3624 119.863 97.4976 119.345 97.717 118.872C97.9418 118.4 98.2352 117.998 98.5972 117.666C98.9645 117.336 99.3939 117.088 99.8853 116.923C100.383 116.754 100.931 116.697 101.532 116.751C102.031 116.796 102.486 116.92 102.896 117.123C103.306 117.321 103.651 117.591 103.931 117.932C104.211 118.273 104.415 118.68 104.544 119.152C104.678 119.619 104.719 120.143 104.667 120.721C104.643 120.987 104.597 121.162 104.531 121.247C104.464 121.332 104.354 121.368 104.2 121.354L98.9811 120.882ZM108.088 118.557C108.279 118.392 108.474 118.246 108.673 118.12C108.878 117.988 109.091 117.879 109.313 117.792C109.535 117.705 109.769 117.643 110.013 117.606C110.257 117.569 110.52 117.564 110.802 117.589C111.248 117.63 111.632 117.739 111.953 117.918C112.279 118.098 112.544 118.333 112.748 118.625C112.958 118.917 113.103 119.259 113.186 119.652C113.268 120.04 113.289 120.462 113.248 120.919L112.78 126.09L111.075 125.936L111.543 120.765C111.592 120.218 111.503 119.781 111.276 119.456C111.053 119.13 110.685 118.944 110.169 118.898C109.787 118.863 109.423 118.919 109.078 119.064C108.738 119.21 108.411 119.421 108.097 119.698L107.562 125.618L105.848 125.463L106.583 117.336L107.619 117.43C107.853 117.451 107.992 117.573 108.036 117.797L108.088 118.557ZM120.561 121.773C120.587 121.486 120.569 121.217 120.506 120.965C120.449 120.708 120.349 120.482 120.206 120.287C120.063 120.087 119.877 119.925 119.647 119.803C119.423 119.675 119.157 119.598 118.849 119.57C118.227 119.514 117.723 119.648 117.335 119.971C116.946 120.295 116.676 120.774 116.522 121.408L120.561 121.773ZM116.379 122.455C116.358 122.919 116.394 123.327 116.485 123.678C116.577 124.024 116.714 124.317 116.896 124.558C117.083 124.8 117.312 124.99 117.583 125.127C117.86 125.259 118.174 125.341 118.525 125.372C118.86 125.403 119.152 125.392 119.403 125.339C119.655 125.282 119.875 125.216 120.064 125.142C120.253 125.063 120.415 124.992 120.549 124.929C120.684 124.861 120.804 124.832 120.91 124.841C121.049 124.854 121.15 124.916 121.215 125.029L121.644 125.703C121.42 125.923 121.174 126.105 120.904 126.246C120.634 126.388 120.351 126.499 120.054 126.579C119.759 126.654 119.457 126.699 119.151 126.714C118.844 126.735 118.547 126.732 118.26 126.706C117.697 126.655 117.182 126.515 116.715 126.285C116.255 126.051 115.863 125.734 115.54 125.335C115.223 124.937 114.988 124.458 114.835 123.898C114.687 123.339 114.645 122.706 114.709 121.999C114.76 121.436 114.895 120.918 115.115 120.445C115.34 119.973 115.633 119.571 115.995 119.24C116.362 118.909 116.792 118.661 117.283 118.497C117.78 118.327 118.329 118.27 118.929 118.324C119.429 118.369 119.883 118.493 120.293 118.697C120.704 118.894 121.049 119.164 121.329 119.505C121.608 119.846 121.813 120.253 121.941 120.725C122.076 121.193 122.117 121.716 122.064 122.295C122.04 122.56 121.995 122.736 121.929 122.821C121.862 122.906 121.752 122.941 121.598 122.927L116.379 122.455ZM125.462 120.562C125.764 120.069 126.108 119.694 126.496 119.434C126.884 119.169 127.331 119.06 127.835 119.105C128.01 119.121 128.173 119.157 128.323 119.214C128.474 119.265 128.607 119.336 128.722 119.427L128.486 120.707C128.456 120.795 128.416 120.856 128.365 120.888C128.319 120.916 128.259 120.927 128.185 120.92C128.105 120.913 127.992 120.89 127.846 120.85C127.7 120.804 127.545 120.774 127.38 120.759C127.141 120.738 126.926 120.753 126.734 120.805C126.547 120.858 126.373 120.944 126.212 121.063C126.057 121.183 125.915 121.334 125.786 121.515C125.657 121.696 125.534 121.904 125.416 122.14L124.959 127.191L123.246 127.036L123.981 118.91L124.977 119C125.158 119.016 125.279 119.062 125.342 119.137C125.405 119.207 125.443 119.326 125.455 119.493L125.462 120.562ZM133.668 124.396C133.055 124.362 132.535 124.366 132.108 124.408C131.682 124.444 131.333 124.512 131.062 124.61C130.791 124.704 130.59 124.827 130.458 124.982C130.331 125.136 130.259 125.312 130.242 125.508C130.224 125.699 130.239 125.867 130.285 126.01C130.336 126.149 130.411 126.268 130.509 126.368C130.613 126.463 130.735 126.538 130.874 126.594C131.02 126.644 131.18 126.677 131.355 126.693C131.802 126.734 132.191 126.686 132.525 126.55C132.864 126.409 133.2 126.193 133.531 125.902L133.668 124.396ZM129.437 120.544C130.434 119.771 131.567 119.443 132.836 119.558C133.303 119.6 133.711 119.714 134.058 119.901C134.411 120.083 134.697 120.323 134.917 120.621C135.141 120.92 135.3 121.266 135.393 121.66C135.492 122.05 135.52 122.475 135.478 122.937L135.012 128.1L134.247 128.031C134.082 128.016 133.959 127.981 133.879 127.926C133.798 127.865 133.736 127.755 133.692 127.595L133.584 126.919C133.36 127.086 133.14 127.235 132.925 127.365C132.71 127.491 132.49 127.594 132.263 127.675C132.041 127.757 131.803 127.81 131.549 127.835C131.3 127.866 131.027 127.868 130.729 127.842C130.4 127.812 130.096 127.739 129.817 127.623C129.544 127.507 129.312 127.349 129.121 127.15C128.931 126.945 128.787 126.702 128.689 126.42C128.597 126.139 128.567 125.815 128.6 125.448C128.629 125.135 128.739 124.837 128.93 124.554C129.127 124.272 129.427 124.031 129.831 123.832C130.24 123.628 130.765 123.478 131.406 123.38C132.052 123.284 132.838 123.266 133.764 123.329L133.813 122.787C133.866 122.202 133.781 121.756 133.557 121.446C133.333 121.137 132.98 120.96 132.496 120.917C132.167 120.887 131.887 120.904 131.656 120.969C131.426 121.029 131.224 121.099 131.051 121.179C130.877 121.26 130.723 121.337 130.588 121.411C130.453 121.479 130.314 121.506 130.171 121.493C130.054 121.483 129.956 121.445 129.876 121.378C129.802 121.308 129.743 121.224 129.698 121.129L129.437 120.544ZM139.503 128.635C138.829 128.574 138.325 128.338 137.993 127.928C137.666 127.513 137.534 126.96 137.596 126.27L138.024 121.537L137.132 121.456C137.036 121.448 136.957 121.411 136.893 121.346C136.83 121.276 136.803 121.18 136.815 121.058L136.877 120.365L138.209 120.293L138.796 117.976C138.831 117.888 138.883 117.82 138.951 117.773C139.02 117.72 139.108 117.699 139.214 117.709L140.09 117.788L139.849 120.457L142.104 120.661L141.992 121.896L139.737 121.692L139.32 126.305C139.294 126.597 139.345 126.827 139.475 126.994C139.604 127.161 139.789 127.255 140.028 127.277C140.16 127.289 140.276 127.283 140.374 127.26C140.473 127.231 140.559 127.202 140.632 127.171C140.704 127.134 140.766 127.102 140.817 127.075C140.873 127.043 140.926 127.029 140.973 127.033C141.069 127.042 141.141 127.102 141.19 127.213L141.624 128.096C141.338 128.305 141.008 128.458 140.635 128.553C140.263 128.642 139.886 128.67 139.503 128.635ZM148.448 124.295C148.473 124.008 148.455 123.739 148.392 123.487C148.335 123.23 148.235 123.004 148.092 122.809C147.949 122.608 147.763 122.447 147.533 122.325C147.309 122.197 147.043 122.12 146.735 122.092C146.114 122.035 145.609 122.169 145.221 122.493C144.833 122.817 144.562 123.296 144.408 123.93L148.448 124.295ZM144.265 124.977C144.245 125.441 144.28 125.849 144.371 126.199C144.463 126.545 144.6 126.839 144.782 127.08C144.969 127.322 145.198 127.511 145.469 127.648C145.747 127.78 146.061 127.862 146.411 127.894C146.746 127.924 147.039 127.913 147.29 127.861C147.541 127.803 147.761 127.738 147.95 127.664C148.139 127.584 148.301 127.513 148.435 127.451C148.57 127.382 148.69 127.353 148.797 127.363C148.935 127.375 149.036 127.438 149.101 127.551L149.53 128.224C149.307 128.445 149.06 128.626 148.79 128.768C148.52 128.909 148.237 129.02 147.941 129.101C147.645 129.176 147.343 129.221 147.037 129.236C146.73 129.256 146.433 129.254 146.146 129.228C145.583 129.177 145.068 129.036 144.602 128.807C144.141 128.572 143.749 128.256 143.426 127.857C143.109 127.459 142.874 126.98 142.721 126.42C142.573 125.86 142.532 125.227 142.595 124.521C142.646 123.958 142.782 123.44 143.001 122.967C143.226 122.495 143.519 122.093 143.881 121.761C144.248 121.43 144.678 121.183 145.169 121.018C145.667 120.849 146.215 120.792 146.816 120.846C147.315 120.891 147.77 121.015 148.18 121.218C148.59 121.416 148.935 121.685 149.215 122.027C149.495 122.368 149.699 122.775 149.828 123.247C149.962 123.714 150.003 124.237 149.951 124.816C149.927 125.082 149.881 125.257 149.815 125.342C149.748 125.427 149.638 125.463 149.484 125.449L144.265 124.977ZM162.279 120.975C162.212 121.065 162.144 121.132 162.076 121.174C162.009 121.21 161.927 121.224 161.832 121.216C161.731 121.207 161.62 121.154 161.501 121.057C161.386 120.961 161.24 120.854 161.064 120.737C160.893 120.614 160.686 120.499 160.444 120.391C160.203 120.279 159.909 120.206 159.564 120.175C159.245 120.146 158.96 120.161 158.709 120.218C158.463 120.276 158.251 120.37 158.073 120.498C157.895 120.627 157.755 120.785 157.652 120.974C157.555 121.158 157.497 121.365 157.476 121.593C157.45 121.885 157.504 122.136 157.641 122.347C157.777 122.552 157.964 122.735 158.202 122.896C158.444 123.057 158.722 123.205 159.037 123.341C159.352 123.471 159.671 123.61 159.995 123.757C160.325 123.904 160.645 124.067 160.955 124.245C161.266 124.423 161.536 124.638 161.765 124.889C161.999 125.14 162.178 125.437 162.302 125.781C162.427 126.124 162.467 126.532 162.425 127.005C162.379 127.515 162.248 127.985 162.032 128.415C161.816 128.845 161.526 129.213 161.161 129.517C160.802 129.817 160.37 130.04 159.864 130.187C159.363 130.334 158.802 130.38 158.181 130.324C157.814 130.291 157.459 130.221 157.115 130.115C156.776 130.015 156.453 129.887 156.146 129.73C155.844 129.569 155.564 129.383 155.305 129.172C155.045 128.961 154.817 128.732 154.62 128.484L155.242 127.64C155.297 127.57 155.363 127.517 155.441 127.482C155.52 127.446 155.604 127.432 155.694 127.44C155.816 127.451 155.946 127.522 156.085 127.652C156.223 127.777 156.39 127.918 156.585 128.075C156.785 128.227 157.029 128.375 157.316 128.519C157.603 128.657 157.954 128.745 158.368 128.783C159.043 128.844 159.578 128.726 159.974 128.43C160.376 128.134 160.603 127.697 160.655 127.118C160.685 126.794 160.631 126.524 160.496 126.308C160.36 126.087 160.171 125.896 159.929 125.735C159.692 125.574 159.415 125.431 159.1 125.306C158.785 125.181 158.465 125.051 158.14 124.914C157.815 124.772 157.497 124.615 157.186 124.442C156.876 124.264 156.603 124.047 156.37 123.79C156.142 123.529 155.966 123.218 155.843 122.859C155.721 122.495 155.683 122.052 155.73 121.532C155.768 121.117 155.884 120.723 156.078 120.35C156.278 119.977 156.545 119.656 156.88 119.386C157.221 119.112 157.628 118.905 158.101 118.766C158.574 118.626 159.103 118.583 159.687 118.636C160.346 118.696 160.939 118.854 161.468 119.11C162.001 119.367 162.45 119.705 162.814 120.124L162.279 120.975ZM166.257 122.732L165.522 130.859L163.809 130.704L164.544 122.577L166.257 122.732ZM166.766 120.304C166.752 120.458 166.707 120.602 166.63 120.734C166.559 120.867 166.466 120.981 166.35 121.078C166.235 121.169 166.103 121.24 165.953 121.291C165.81 121.337 165.659 121.353 165.499 121.338C165.345 121.325 165.202 121.282 165.069 121.211C164.942 121.135 164.833 121.043 164.741 120.933C164.65 120.817 164.578 120.688 164.527 120.544C164.481 120.4 164.465 120.252 164.479 120.098C164.493 119.938 164.536 119.792 164.607 119.659C164.683 119.527 164.776 119.415 164.886 119.323C164.997 119.226 165.121 119.154 165.259 119.108C165.403 119.057 165.552 119.038 165.706 119.052C165.865 119.066 166.011 119.112 166.144 119.188C166.282 119.259 166.399 119.353 166.496 119.469C166.593 119.579 166.664 119.706 166.71 119.85C166.762 119.993 166.78 120.145 166.766 120.304ZM170.268 131.417C169.594 131.356 169.09 131.12 168.758 130.71C168.431 130.295 168.299 129.742 168.361 129.052L168.789 124.319L167.897 124.238C167.801 124.23 167.722 124.193 167.658 124.128C167.595 124.058 167.569 123.962 167.58 123.84L167.642 123.147L168.974 123.074L169.561 120.758C169.596 120.67 169.648 120.602 169.716 120.555C169.785 120.502 169.873 120.481 169.979 120.49L170.855 120.57L170.614 123.239L172.869 123.443L172.757 124.678L170.502 124.474L170.085 129.087C170.059 129.379 170.11 129.609 170.24 129.776C170.369 129.943 170.554 130.037 170.793 130.059C170.925 130.071 171.041 130.065 171.14 130.042C171.239 130.013 171.324 129.984 171.397 129.953C171.47 129.916 171.531 129.884 171.582 129.857C171.639 129.825 171.691 129.811 171.738 129.815C171.834 129.823 171.906 129.884 171.955 129.995L172.389 130.878C172.103 131.087 171.773 131.24 171.4 131.335C171.028 131.424 170.651 131.452 170.268 131.417ZM179.213 127.077C179.239 126.79 179.22 126.521 179.157 126.269C179.1 126.012 179 125.786 178.857 125.591C178.715 125.39 178.528 125.229 178.298 125.106C178.074 124.979 177.808 124.901 177.5 124.874C176.879 124.817 176.374 124.951 175.986 125.275C175.598 125.599 175.327 126.077 175.173 126.712L179.213 127.077ZM175.03 127.759C175.01 128.223 175.045 128.63 175.137 128.981C175.228 129.327 175.365 129.621 175.547 129.862C175.734 130.104 175.963 130.293 176.235 130.43C176.512 130.562 176.826 130.644 177.176 130.676C177.511 130.706 177.804 130.695 178.055 130.643C178.306 130.585 178.526 130.52 178.715 130.446C178.904 130.366 179.066 130.295 179.2 130.233C179.335 130.164 179.456 130.135 179.562 130.145C179.7 130.157 179.801 130.22 179.866 130.333L180.295 131.006C180.072 131.227 179.825 131.408 179.555 131.55C179.285 131.691 179.002 131.802 178.706 131.883C178.41 131.958 178.109 132.003 177.802 132.018C177.495 132.038 177.198 132.036 176.911 132.01C176.348 131.959 175.833 131.818 175.367 131.589C174.906 131.354 174.514 131.038 174.191 130.639C173.874 130.241 173.639 129.762 173.486 129.202C173.338 128.642 173.297 128.009 173.361 127.303C173.411 126.74 173.547 126.222 173.766 125.749C173.991 125.277 174.284 124.875 174.646 124.543C175.014 124.212 175.443 123.965 175.934 123.8C176.432 123.631 176.98 123.574 177.581 123.628C178.08 123.673 178.535 123.797 178.945 124C179.355 124.198 179.7 124.467 179.98 124.809C180.26 125.15 180.464 125.557 180.593 126.029C180.727 126.496 180.768 127.019 180.716 127.598C180.692 127.864 180.646 128.039 180.58 128.124C180.513 128.209 180.403 128.245 180.249 128.231L175.03 127.759Z" fill="white"/>
</g>
<path d="M176.787 141.25C176.919 141.261 177.041 141.325 177.126 141.427C177.211 141.529 177.252 141.66 177.24 141.792L177.09 143.452C177.078 143.584 177.014 143.706 176.912 143.791C176.81 143.876 176.679 143.917 176.547 143.905C176.415 143.893 176.293 143.829 176.208 143.728C176.123 143.626 176.082 143.494 176.094 143.362L176.244 141.702C176.256 141.57 176.32 141.448 176.422 141.364C176.523 141.279 176.655 141.238 176.787 141.25ZM173.495 142.271C173.597 142.186 173.728 142.145 173.86 142.157C173.992 142.169 174.114 142.232 174.199 142.334L175.256 143.601C175.3 143.651 175.335 143.71 175.356 143.773C175.378 143.837 175.387 143.904 175.382 143.971C175.377 144.038 175.359 144.103 175.328 144.163C175.297 144.223 175.255 144.276 175.203 144.319C175.152 144.362 175.092 144.394 175.028 144.413C174.964 144.433 174.896 144.439 174.829 144.432C174.763 144.425 174.698 144.404 174.639 144.371C174.581 144.339 174.529 144.294 174.488 144.241L173.431 142.974C173.346 142.873 173.306 142.741 173.317 142.609C173.329 142.477 173.393 142.355 173.495 142.271ZM179.842 142.844C179.927 142.946 179.968 143.078 179.956 143.21C179.944 143.342 179.88 143.463 179.779 143.548L178.512 144.605C178.462 144.65 178.403 144.684 178.34 144.706C178.276 144.728 178.209 144.736 178.142 144.731C178.075 144.727 178.01 144.708 177.95 144.678C177.89 144.647 177.837 144.605 177.794 144.553C177.751 144.501 177.719 144.442 177.699 144.377C177.68 144.313 177.674 144.246 177.681 144.179C177.688 144.112 177.709 144.048 177.742 143.989C177.774 143.93 177.818 143.879 177.872 143.838L179.139 142.781C179.24 142.696 179.372 142.655 179.504 142.667C179.636 142.679 179.757 142.743 179.842 142.844ZM171.9 145.326C171.912 145.194 171.976 145.072 172.078 144.987C172.179 144.902 172.311 144.861 172.443 144.873L174.103 145.023C174.235 145.035 174.357 145.099 174.442 145.201C174.527 145.303 174.568 145.434 174.556 145.566C174.544 145.698 174.48 145.82 174.378 145.905C174.276 145.99 174.145 146.031 174.013 146.019L172.353 145.869C172.221 145.857 172.099 145.793 172.014 145.691C171.929 145.589 171.888 145.458 171.9 145.326ZM175.839 146.176C175.907 145.427 176.821 145.103 177.345 145.642L182.527 150.965C183.085 151.537 182.651 152.496 181.854 152.457L179.295 152.328C179.02 152.314 178.751 152.412 178.549 152.6L176.638 154.383C176.048 154.934 175.09 154.464 175.163 153.66L175.839 146.176Z" fill="white"/>
<defs>
<filter id="filter0_dd_142_19" x="-1.59888" y="48.6367" width="249.739" height="143.75" filterUnits="userSpaceOnUse" color-interpolation-filters="sRGB">
<feFlood flood-opacity="0" result="BackgroundImageFix"/>
<feColorMatrix in="SourceAlpha" type="matrix" values="0 0 0 0 0 0 0 0 0 0 0 0 0 0 0 0 0 0 127 0" result="hardAlpha"/>
<feOffset/>
<feGaussianBlur stdDeviation="20"/>
<feComposite in2="hardAlpha" operator="out"/>
<feColorMatrix type="matrix" values="0 0 0 0 0.945098 0 0 0 0 0.768627 0 0 0 0 0.0588235 0 0 0 1 0"/>
<feBlend mode="normal" in2="BackgroundImageFix" result="effect1_dropShadow_142_19"/>
<feColorMatrix in="SourceAlpha" type="matrix" values="0 0 0 0 0 0 0 0 0 0 0 0 0 0 0 0 0 0 127 0" result="hardAlpha"/>
<feOffset/>
<feGaussianBlur stdDeviation="2"/>
<feComposite in2="hardAlpha" operator="out"/>
<feColorMatrix type="matrix" values="0 0 0 0 1 0 0 0 0 0.800885 0 0 0 0 0 0 0 0 1 0"/>
<feBlend mode="normal" in2="effect1_dropShadow_142_19" result="effect2_dropShadow_142_19"/>
<feBlend mode="normal" in="SourceGraphic" in2="effect2_dropShadow_142_19" result="shape"/>
</filter>
<clipPath id="clip0_142_19">
<rect width="16" height="16" fill="white" transform="translate(65.2305 107.231) rotate(5.16698)"/>
</clipPath>
</defs>
</svg>
